<mxfile host="Electron" agent="Mozilla/5.0 (Windows NT 10.0; Win64; x64) AppleWebKit/537.36 (KHTML, like Gecko) draw.io/27.0.2 Chrome/134.0.6998.205 Electron/35.3.0 Safari/537.36" version="27.0.2">
  <diagram name="Page-1" id="xuh0cykSOpQwXuW4qOPs">
    <mxGraphModel dx="2419" dy="2019" grid="1" gridSize="10" guides="1" tooltips="1" connect="1" arrows="1" fold="1" page="1" pageScale="1" pageWidth="850" pageHeight="1100" math="0" shadow="0">
      <root>
        <mxCell id="0" />
        <mxCell id="1" parent="0" />
        <mxCell id="SwjVpoiH7Qk73Fy9ReZs-27" value="" style="edgeStyle=orthogonalEdgeStyle;rounded=0;orthogonalLoop=1;jettySize=auto;html=1;" edge="1" parent="1" source="SwjVpoiH7Qk73Fy9ReZs-1" target="SwjVpoiH7Qk73Fy9ReZs-23">
          <mxGeometry relative="1" as="geometry">
            <Array as="points">
              <mxPoint x="782.57" y="471" />
              <mxPoint x="772.57" y="471" />
            </Array>
          </mxGeometry>
        </mxCell>
        <mxCell id="SwjVpoiH7Qk73Fy9ReZs-28" value="" style="edgeStyle=orthogonalEdgeStyle;rounded=0;orthogonalLoop=1;jettySize=auto;html=1;" edge="1" parent="1" source="SwjVpoiH7Qk73Fy9ReZs-1" target="SwjVpoiH7Qk73Fy9ReZs-26">
          <mxGeometry relative="1" as="geometry" />
        </mxCell>
        <mxCell id="SwjVpoiH7Qk73Fy9ReZs-29" value="" style="edgeStyle=orthogonalEdgeStyle;rounded=0;orthogonalLoop=1;jettySize=auto;html=1;" edge="1" parent="1" source="SwjVpoiH7Qk73Fy9ReZs-1" target="SwjVpoiH7Qk73Fy9ReZs-24">
          <mxGeometry relative="1" as="geometry">
            <Array as="points">
              <mxPoint x="792.57" y="485" />
            </Array>
          </mxGeometry>
        </mxCell>
        <mxCell id="SwjVpoiH7Qk73Fy9ReZs-30" value="" style="edgeStyle=orthogonalEdgeStyle;rounded=0;orthogonalLoop=1;jettySize=auto;html=1;" edge="1" parent="1" source="SwjVpoiH7Qk73Fy9ReZs-1" target="SwjVpoiH7Qk73Fy9ReZs-25">
          <mxGeometry relative="1" as="geometry">
            <Array as="points">
              <mxPoint x="723" y="440" />
              <mxPoint x="608" y="440" />
            </Array>
          </mxGeometry>
        </mxCell>
        <mxCell id="SwjVpoiH7Qk73Fy9ReZs-1" value="projects" style="rounded=0;whiteSpace=wrap;html=1;fillColor=#dae8fc;strokeColor=#6c8ebf;" vertex="1" parent="1">
          <mxGeometry x="692.57" y="345" width="120" height="60" as="geometry" />
        </mxCell>
        <mxCell id="SwjVpoiH7Qk73Fy9ReZs-20" value="" style="edgeStyle=orthogonalEdgeStyle;rounded=0;orthogonalLoop=1;jettySize=auto;html=1;" edge="1" parent="1" source="SwjVpoiH7Qk73Fy9ReZs-2" target="SwjVpoiH7Qk73Fy9ReZs-13">
          <mxGeometry relative="1" as="geometry">
            <Array as="points">
              <mxPoint x="710" y="-140" />
            </Array>
          </mxGeometry>
        </mxCell>
        <mxCell id="SwjVpoiH7Qk73Fy9ReZs-22" value="" style="edgeStyle=orthogonalEdgeStyle;rounded=0;orthogonalLoop=1;jettySize=auto;html=1;" edge="1" parent="1" source="SwjVpoiH7Qk73Fy9ReZs-2" target="SwjVpoiH7Qk73Fy9ReZs-15">
          <mxGeometry relative="1" as="geometry">
            <Array as="points">
              <mxPoint x="730" y="-200" />
            </Array>
          </mxGeometry>
        </mxCell>
        <mxCell id="SwjVpoiH7Qk73Fy9ReZs-40" value="" style="edgeStyle=orthogonalEdgeStyle;rounded=0;orthogonalLoop=1;jettySize=auto;html=1;" edge="1" parent="1" source="SwjVpoiH7Qk73Fy9ReZs-2">
          <mxGeometry relative="1" as="geometry">
            <mxPoint x="822.5735931288073" y="-140" as="targetPoint" />
            <Array as="points">
              <mxPoint x="770" y="-140" />
            </Array>
          </mxGeometry>
        </mxCell>
        <mxCell id="SwjVpoiH7Qk73Fy9ReZs-2" value="Department" style="rounded=0;whiteSpace=wrap;html=1;fillColor=#dae8fc;strokeColor=#6c8ebf;" vertex="1" parent="1">
          <mxGeometry x="680" y="-60" width="120" height="60" as="geometry" />
        </mxCell>
        <mxCell id="SwjVpoiH7Qk73Fy9ReZs-34" value="" style="edgeStyle=orthogonalEdgeStyle;rounded=0;orthogonalLoop=1;jettySize=auto;html=1;" edge="1" parent="1" target="SwjVpoiH7Qk73Fy9ReZs-31">
          <mxGeometry relative="1" as="geometry">
            <mxPoint x="250" y="385" as="sourcePoint" />
            <Array as="points">
              <mxPoint x="250" y="386" />
              <mxPoint x="140" y="386" />
            </Array>
          </mxGeometry>
        </mxCell>
        <mxCell id="SwjVpoiH7Qk73Fy9ReZs-35" value="" style="edgeStyle=orthogonalEdgeStyle;rounded=0;orthogonalLoop=1;jettySize=auto;html=1;" edge="1" parent="1" target="SwjVpoiH7Qk73Fy9ReZs-32">
          <mxGeometry relative="1" as="geometry">
            <mxPoint x="250" y="385" as="sourcePoint" />
          </mxGeometry>
        </mxCell>
        <mxCell id="SwjVpoiH7Qk73Fy9ReZs-36" value="" style="edgeStyle=orthogonalEdgeStyle;rounded=0;orthogonalLoop=1;jettySize=auto;html=1;" edge="1" parent="1">
          <mxGeometry relative="1" as="geometry">
            <mxPoint x="215" y="415" as="sourcePoint" />
            <mxPoint x="260" y="515" as="targetPoint" />
            <Array as="points">
              <mxPoint x="216" y="415" />
              <mxPoint x="216" y="515" />
            </Array>
          </mxGeometry>
        </mxCell>
        <mxCell id="SwjVpoiH7Qk73Fy9ReZs-17" value="" style="edgeStyle=orthogonalEdgeStyle;rounded=0;orthogonalLoop=1;jettySize=auto;html=1;" edge="1" parent="1" source="SwjVpoiH7Qk73Fy9ReZs-4" target="SwjVpoiH7Qk73Fy9ReZs-5">
          <mxGeometry relative="1" as="geometry">
            <Array as="points">
              <mxPoint x="140" y="-140" />
              <mxPoint x="140" y="-140" />
            </Array>
          </mxGeometry>
        </mxCell>
        <mxCell id="SwjVpoiH7Qk73Fy9ReZs-18" value="" style="edgeStyle=orthogonalEdgeStyle;rounded=0;orthogonalLoop=1;jettySize=auto;html=1;" edge="1" parent="1" source="SwjVpoiH7Qk73Fy9ReZs-4" target="SwjVpoiH7Qk73Fy9ReZs-12">
          <mxGeometry relative="1" as="geometry">
            <Array as="points">
              <mxPoint x="200" y="-100" />
            </Array>
          </mxGeometry>
        </mxCell>
        <mxCell id="SwjVpoiH7Qk73Fy9ReZs-19" value="" style="edgeStyle=orthogonalEdgeStyle;rounded=0;orthogonalLoop=1;jettySize=auto;html=1;" edge="1" parent="1" source="SwjVpoiH7Qk73Fy9ReZs-4" target="SwjVpoiH7Qk73Fy9ReZs-11">
          <mxGeometry relative="1" as="geometry">
            <Array as="points">
              <mxPoint x="180" y="-150" />
              <mxPoint x="180" y="-150" />
            </Array>
          </mxGeometry>
        </mxCell>
        <mxCell id="SwjVpoiH7Qk73Fy9ReZs-38" value="" style="edgeStyle=orthogonalEdgeStyle;rounded=0;orthogonalLoop=1;jettySize=auto;html=1;" edge="1" parent="1" source="SwjVpoiH7Qk73Fy9ReZs-4">
          <mxGeometry relative="1" as="geometry">
            <mxPoint x="70" y="-100" as="targetPoint" />
            <Array as="points">
              <mxPoint x="120" y="-100" />
            </Array>
          </mxGeometry>
        </mxCell>
        <mxCell id="SwjVpoiH7Qk73Fy9ReZs-5" value="DOB" style="ellipse;whiteSpace=wrap;html=1;fillColor=#d0cee2;strokeColor=#56517e;" vertex="1" parent="1">
          <mxGeometry x="-10" y="-240" width="90" height="60" as="geometry" />
        </mxCell>
        <mxCell id="SwjVpoiH7Qk73Fy9ReZs-10" value="&lt;u&gt;SSN&lt;/u&gt;" style="ellipse;whiteSpace=wrap;html=1;fillColor=#d0cee2;strokeColor=#56517e;" vertex="1" parent="1">
          <mxGeometry x="-20" y="-130" width="90" height="60" as="geometry" />
        </mxCell>
        <mxCell id="SwjVpoiH7Qk73Fy9ReZs-11" value="Gender" style="ellipse;whiteSpace=wrap;html=1;fillColor=#d0cee2;strokeColor=#56517e;" vertex="1" parent="1">
          <mxGeometry x="220" y="-240" width="90" height="60" as="geometry" />
        </mxCell>
        <mxCell id="SwjVpoiH7Qk73Fy9ReZs-12" value="name" style="ellipse;whiteSpace=wrap;html=1;fillColor=#d0cee2;strokeColor=#56517e;" vertex="1" parent="1">
          <mxGeometry x="250" y="-130" width="90" height="60" as="geometry" />
        </mxCell>
        <mxCell id="SwjVpoiH7Qk73Fy9ReZs-13" value="&lt;u&gt;Dnum&lt;/u&gt;" style="ellipse;whiteSpace=wrap;html=1;fillColor=#d0cee2;strokeColor=#56517e;" vertex="1" parent="1">
          <mxGeometry x="560" y="-160" width="90" height="60" as="geometry" />
        </mxCell>
        <mxCell id="SwjVpoiH7Qk73Fy9ReZs-15" value="Dname" style="ellipse;whiteSpace=wrap;html=1;fillColor=#d0cee2;strokeColor=#56517e;" vertex="1" parent="1">
          <mxGeometry x="560" y="-230" width="90" height="60" as="geometry" />
        </mxCell>
        <mxCell id="SwjVpoiH7Qk73Fy9ReZs-23" value="pname" style="ellipse;whiteSpace=wrap;html=1;fillColor=#d0cee2;strokeColor=#56517e;" vertex="1" parent="1">
          <mxGeometry x="742.57" y="535" width="90" height="60" as="geometry" />
        </mxCell>
        <mxCell id="SwjVpoiH7Qk73Fy9ReZs-24" value="location" style="ellipse;whiteSpace=wrap;html=1;fillColor=#d0cee2;strokeColor=#56517e;" vertex="1" parent="1">
          <mxGeometry x="822.57" y="465" width="90" height="60" as="geometry" />
        </mxCell>
        <mxCell id="SwjVpoiH7Qk73Fy9ReZs-25" value="city" style="ellipse;whiteSpace=wrap;html=1;fillColor=#d0cee2;strokeColor=#56517e;" vertex="1" parent="1">
          <mxGeometry x="542.57" y="535" width="90" height="60" as="geometry" />
        </mxCell>
        <mxCell id="SwjVpoiH7Qk73Fy9ReZs-26" value="&lt;u&gt;pnumber&lt;/u&gt;" style="ellipse;whiteSpace=wrap;html=1;fillColor=#d0cee2;strokeColor=#56517e;" vertex="1" parent="1">
          <mxGeometry x="642.57" y="535" width="90" height="60" as="geometry" />
        </mxCell>
        <mxCell id="SwjVpoiH7Qk73Fy9ReZs-31" value="Dname" style="ellipse;whiteSpace=wrap;html=1;fillColor=#d0cee2;strokeColor=#56517e;" vertex="1" parent="1">
          <mxGeometry x="20" y="485" width="90" height="60" as="geometry" />
        </mxCell>
        <mxCell id="SwjVpoiH7Qk73Fy9ReZs-32" value="DOB" style="ellipse;whiteSpace=wrap;html=1;fillColor=#d0cee2;strokeColor=#56517e;" vertex="1" parent="1">
          <mxGeometry x="140" y="535" width="90" height="60" as="geometry" />
        </mxCell>
        <mxCell id="SwjVpoiH7Qk73Fy9ReZs-33" value="Gender" style="ellipse;whiteSpace=wrap;html=1;fillColor=#d0cee2;strokeColor=#56517e;" vertex="1" parent="1">
          <mxGeometry x="260" y="485" width="90" height="60" as="geometry" />
        </mxCell>
        <mxCell id="SwjVpoiH7Qk73Fy9ReZs-39" value="locations" style="ellipse;whiteSpace=wrap;html=1;fillColor=#d0cee2;strokeColor=#56517e;" vertex="1" parent="1">
          <mxGeometry x="822.57" y="-170" width="90" height="60" as="geometry" />
        </mxCell>
        <mxCell id="SwjVpoiH7Qk73Fy9ReZs-41" value="dependent" style="shape=ext;margin=3;double=1;whiteSpace=wrap;html=1;align=center;fillColor=#dae8fc;strokeColor=#6c8ebf;" vertex="1" parent="1">
          <mxGeometry x="122" y="355" width="130" height="60" as="geometry" />
        </mxCell>
        <mxCell id="SwjVpoiH7Qk73Fy9ReZs-42" value="Work" style="rhombus;whiteSpace=wrap;html=1;fillColor=#d5e8d4;strokeColor=#82b366;" vertex="1" parent="1">
          <mxGeometry x="410" y="110" width="80" height="80" as="geometry" />
        </mxCell>
        <mxCell id="SwjVpoiH7Qk73Fy9ReZs-45" value="" style="endArrow=none;html=1;rounded=0;entryX=0.25;entryY=1;entryDx=0;entryDy=0;exitX=1;exitY=0.5;exitDx=0;exitDy=0;" edge="1" parent="1" source="SwjVpoiH7Qk73Fy9ReZs-42" target="SwjVpoiH7Qk73Fy9ReZs-2">
          <mxGeometry relative="1" as="geometry">
            <mxPoint x="480" y="20" as="sourcePoint" />
            <mxPoint x="640" y="20" as="targetPoint" />
          </mxGeometry>
        </mxCell>
        <mxCell id="SwjVpoiH7Qk73Fy9ReZs-46" value="1" style="resizable=0;html=1;whiteSpace=wrap;align=right;verticalAlign=bottom;" connectable="0" vertex="1" parent="SwjVpoiH7Qk73Fy9ReZs-45">
          <mxGeometry x="1" relative="1" as="geometry" />
        </mxCell>
        <mxCell id="SwjVpoiH7Qk73Fy9ReZs-47" value="" style="endArrow=none;html=1;rounded=0;exitX=1;exitY=1;exitDx=0;exitDy=0;entryX=0;entryY=0.5;entryDx=0;entryDy=0;" edge="1" parent="1" source="SwjVpoiH7Qk73Fy9ReZs-4" target="SwjVpoiH7Qk73Fy9ReZs-42">
          <mxGeometry relative="1" as="geometry">
            <mxPoint x="225" y="10" as="sourcePoint" />
            <mxPoint x="385" y="10" as="targetPoint" />
          </mxGeometry>
        </mxCell>
        <mxCell id="SwjVpoiH7Qk73Fy9ReZs-48" value="manage" style="rhombus;whiteSpace=wrap;html=1;fillColor=#d5e8d4;strokeColor=#82b366;" vertex="1" parent="1">
          <mxGeometry x="420" y="-60" width="80" height="80" as="geometry" />
        </mxCell>
        <mxCell id="SwjVpoiH7Qk73Fy9ReZs-50" value="" style="endArrow=none;html=1;rounded=0;entryX=0;entryY=0.5;entryDx=0;entryDy=0;" edge="1" parent="1" source="SwjVpoiH7Qk73Fy9ReZs-4" target="SwjVpoiH7Qk73Fy9ReZs-48">
          <mxGeometry relative="1" as="geometry">
            <mxPoint x="230" y="-20" as="sourcePoint" />
            <mxPoint x="390" y="-20" as="targetPoint" />
          </mxGeometry>
        </mxCell>
        <mxCell id="SwjVpoiH7Qk73Fy9ReZs-51" value="1" style="resizable=0;html=1;whiteSpace=wrap;align=right;verticalAlign=bottom;" connectable="0" vertex="1" parent="SwjVpoiH7Qk73Fy9ReZs-50">
          <mxGeometry x="1" relative="1" as="geometry">
            <mxPoint x="-140" as="offset" />
          </mxGeometry>
        </mxCell>
        <mxCell id="SwjVpoiH7Qk73Fy9ReZs-52" value="" style="endArrow=none;html=1;rounded=0;" edge="1" parent="1" source="SwjVpoiH7Qk73Fy9ReZs-48" target="SwjVpoiH7Qk73Fy9ReZs-2">
          <mxGeometry relative="1" as="geometry">
            <mxPoint x="490" y="-30" as="sourcePoint" />
            <mxPoint x="630" y="-30.5" as="targetPoint" />
          </mxGeometry>
        </mxCell>
        <mxCell id="SwjVpoiH7Qk73Fy9ReZs-53" value="1" style="resizable=0;html=1;whiteSpace=wrap;align=right;verticalAlign=bottom;" connectable="0" vertex="1" parent="SwjVpoiH7Qk73Fy9ReZs-52">
          <mxGeometry x="1" relative="1" as="geometry" />
        </mxCell>
        <mxCell id="SwjVpoiH7Qk73Fy9ReZs-55" value="" style="endArrow=none;html=1;rounded=0;" edge="1" parent="1" source="SwjVpoiH7Qk73Fy9ReZs-48" target="SwjVpoiH7Qk73Fy9ReZs-56">
          <mxGeometry relative="1" as="geometry">
            <mxPoint x="460" y="8" as="sourcePoint" />
            <mxPoint x="460" y="78" as="targetPoint" />
            <Array as="points">
              <mxPoint x="460" y="28" />
            </Array>
          </mxGeometry>
        </mxCell>
        <mxCell id="SwjVpoiH7Qk73Fy9ReZs-56" value="hiring date" style="ellipse;whiteSpace=wrap;html=1;" vertex="1" parent="1">
          <mxGeometry x="430" y="60" width="60" height="40" as="geometry" />
        </mxCell>
        <mxCell id="SwjVpoiH7Qk73Fy9ReZs-58" value="Work" style="rhombus;whiteSpace=wrap;html=1;fillColor=#d5e8d4;strokeColor=#82b366;" vertex="1" parent="1">
          <mxGeometry x="410" y="240" width="80" height="80" as="geometry" />
        </mxCell>
        <mxCell id="SwjVpoiH7Qk73Fy9ReZs-59" value="" style="endArrow=none;html=1;rounded=0;entryX=0.088;entryY=0.513;entryDx=0;entryDy=0;entryPerimeter=0;exitX=0.731;exitY=0.833;exitDx=0;exitDy=0;exitPerimeter=0;" edge="1" parent="1" source="SwjVpoiH7Qk73Fy9ReZs-4" target="SwjVpoiH7Qk73Fy9ReZs-58">
          <mxGeometry relative="1" as="geometry">
            <mxPoint x="177.34312500000024" y="10" as="sourcePoint" />
            <mxPoint x="412.65" y="280" as="targetPoint" />
            <Array as="points">
              <mxPoint x="197.68" y="140" />
              <mxPoint x="197.68" y="281" />
              <mxPoint x="236.68" y="280" />
            </Array>
          </mxGeometry>
        </mxCell>
        <mxCell id="SwjVpoiH7Qk73Fy9ReZs-61" value="" style="endArrow=none;html=1;rounded=0;entryX=0;entryY=0.5;entryDx=0;entryDy=0;" edge="1" parent="1" target="SwjVpoiH7Qk73Fy9ReZs-4">
          <mxGeometry relative="1" as="geometry">
            <mxPoint x="194.9977419354839" as="sourcePoint" />
            <mxPoint x="410" y="280" as="targetPoint" />
            <Array as="points" />
          </mxGeometry>
        </mxCell>
        <mxCell id="SwjVpoiH7Qk73Fy9ReZs-4" value="Emplyee" style="rounded=0;whiteSpace=wrap;html=1;fillColor=#dae8fc;strokeColor=#6c8ebf;" vertex="1" parent="1">
          <mxGeometry x="110" y="-50" width="120" height="60" as="geometry" />
        </mxCell>
        <mxCell id="SwjVpoiH7Qk73Fy9ReZs-62" value="Work" style="rhombus;whiteSpace=wrap;html=1;fillColor=#d5e8d4;strokeColor=#82b366;" vertex="1" parent="1">
          <mxGeometry x="100" y="160" width="80" height="80" as="geometry" />
        </mxCell>
        <mxCell id="SwjVpoiH7Qk73Fy9ReZs-64" value="" style="shape=link;html=1;rounded=0;entryX=0.5;entryY=1;entryDx=0;entryDy=0;exitX=0.146;exitY=-0.017;exitDx=0;exitDy=0;exitPerimeter=0;" edge="1" parent="1" source="SwjVpoiH7Qk73Fy9ReZs-41" target="SwjVpoiH7Qk73Fy9ReZs-62">
          <mxGeometry relative="1" as="geometry">
            <mxPoint x="80" y="300" as="sourcePoint" />
            <mxPoint x="240" y="300" as="targetPoint" />
          </mxGeometry>
        </mxCell>
        <mxCell id="SwjVpoiH7Qk73Fy9ReZs-65" value="M" style="resizable=0;html=1;whiteSpace=wrap;align=left;verticalAlign=bottom;" connectable="0" vertex="1" parent="SwjVpoiH7Qk73Fy9ReZs-64">
          <mxGeometry x="-1" relative="1" as="geometry">
            <mxPoint x="4" as="offset" />
          </mxGeometry>
        </mxCell>
        <mxCell id="SwjVpoiH7Qk73Fy9ReZs-67" value="" style="endArrow=none;html=1;rounded=0;entryX=0.35;entryY=0.933;entryDx=0;entryDy=0;entryPerimeter=0;" edge="1" parent="1" source="SwjVpoiH7Qk73Fy9ReZs-62" target="SwjVpoiH7Qk73Fy9ReZs-4">
          <mxGeometry relative="1" as="geometry">
            <mxPoint x="170" y="290" as="sourcePoint" />
            <mxPoint x="330" y="290" as="targetPoint" />
          </mxGeometry>
        </mxCell>
        <mxCell id="SwjVpoiH7Qk73Fy9ReZs-68" value="1" style="resizable=0;html=1;whiteSpace=wrap;align=right;verticalAlign=bottom;" connectable="0" vertex="1" parent="SwjVpoiH7Qk73Fy9ReZs-67">
          <mxGeometry x="1" relative="1" as="geometry" />
        </mxCell>
        <mxCell id="SwjVpoiH7Qk73Fy9ReZs-69" value="has" style="rhombus;whiteSpace=wrap;html=1;fillColor=#d5e8d4;strokeColor=#82b366;" vertex="1" parent="1">
          <mxGeometry x="742.5699999999999" y="110" width="80" height="80" as="geometry" />
        </mxCell>
        <mxCell id="SwjVpoiH7Qk73Fy9ReZs-70" value="" style="endArrow=none;html=1;rounded=0;entryX=0.75;entryY=1;entryDx=0;entryDy=0;" edge="1" parent="1" source="SwjVpoiH7Qk73Fy9ReZs-69" target="SwjVpoiH7Qk73Fy9ReZs-2">
          <mxGeometry relative="1" as="geometry">
            <mxPoint x="380" y="290" as="sourcePoint" />
            <mxPoint x="540" y="290" as="targetPoint" />
          </mxGeometry>
        </mxCell>
        <mxCell id="SwjVpoiH7Qk73Fy9ReZs-71" value="1" style="resizable=0;html=1;whiteSpace=wrap;align=right;verticalAlign=bottom;" connectable="0" vertex="1" parent="SwjVpoiH7Qk73Fy9ReZs-70">
          <mxGeometry x="1" relative="1" as="geometry">
            <mxPoint y="20" as="offset" />
          </mxGeometry>
        </mxCell>
        <mxCell id="SwjVpoiH7Qk73Fy9ReZs-72" value="" style="endArrow=none;html=1;rounded=0;exitX=0.75;exitY=0;exitDx=0;exitDy=0;entryX=0.5;entryY=1;entryDx=0;entryDy=0;" edge="1" parent="1" source="SwjVpoiH7Qk73Fy9ReZs-1" target="SwjVpoiH7Qk73Fy9ReZs-69">
          <mxGeometry relative="1" as="geometry">
            <mxPoint x="780" y="279.5" as="sourcePoint" />
            <mxPoint x="940" y="279.5" as="targetPoint" />
          </mxGeometry>
        </mxCell>
        <mxCell id="SwjVpoiH7Qk73Fy9ReZs-73" value="M" style="resizable=0;html=1;whiteSpace=wrap;align=left;verticalAlign=bottom;" connectable="0" vertex="1" parent="SwjVpoiH7Qk73Fy9ReZs-72">
          <mxGeometry x="-1" relative="1" as="geometry" />
        </mxCell>
        <mxCell id="SwjVpoiH7Qk73Fy9ReZs-76" value="working hours" style="ellipse;whiteSpace=wrap;html=1;" vertex="1" parent="1">
          <mxGeometry x="415" y="360" width="70" height="50" as="geometry" />
        </mxCell>
        <mxCell id="SwjVpoiH7Qk73Fy9ReZs-78" value="" style="endArrow=none;html=1;rounded=0;entryX=0.5;entryY=0;entryDx=0;entryDy=0;" edge="1" parent="1" target="SwjVpoiH7Qk73Fy9ReZs-76">
          <mxGeometry relative="1" as="geometry">
            <mxPoint x="450" y="320" as="sourcePoint" />
            <mxPoint x="530" y="160" as="targetPoint" />
            <Array as="points">
              <mxPoint x="450" y="340" />
            </Array>
          </mxGeometry>
        </mxCell>
        <mxCell id="SwjVpoiH7Qk73Fy9ReZs-82" value="" style="endArrow=none;html=1;rounded=0;entryX=0;entryY=0.5;entryDx=0;entryDy=0;exitX=0.142;exitY=0.983;exitDx=0;exitDy=0;exitPerimeter=0;" edge="1" parent="1" source="SwjVpoiH7Qk73Fy9ReZs-4" target="SwjVpoiH7Qk73Fy9ReZs-81">
          <mxGeometry relative="1" as="geometry">
            <mxPoint x="127" y="9" as="sourcePoint" />
            <mxPoint x="110" y="-20" as="targetPoint" />
            <Array as="points">
              <mxPoint x="130" y="30" />
              <mxPoint y="30" />
            </Array>
          </mxGeometry>
        </mxCell>
        <mxCell id="SwjVpoiH7Qk73Fy9ReZs-81" value="supervisere" style="rhombus;whiteSpace=wrap;html=1;fillColor=#d5e8d4;strokeColor=#82b366;" vertex="1" parent="1">
          <mxGeometry x="-50" y="-40" width="80" height="80" as="geometry" />
        </mxCell>
        <mxCell id="SwjVpoiH7Qk73Fy9ReZs-83" value="" style="endArrow=none;html=1;rounded=0;exitX=0.538;exitY=0.088;exitDx=0;exitDy=0;exitPerimeter=0;entryX=0;entryY=0.25;entryDx=0;entryDy=0;" edge="1" parent="1" source="SwjVpoiH7Qk73Fy9ReZs-81" target="SwjVpoiH7Qk73Fy9ReZs-4">
          <mxGeometry relative="1" as="geometry">
            <mxPoint x="250" y="160" as="sourcePoint" />
            <mxPoint x="410" y="160" as="targetPoint" />
          </mxGeometry>
        </mxCell>
        <mxCell id="SwjVpoiH7Qk73Fy9ReZs-84" value="" style="shape=link;html=1;rounded=0;entryX=0.888;entryY=0.563;entryDx=0;entryDy=0;entryPerimeter=0;" edge="1" parent="1" source="SwjVpoiH7Qk73Fy9ReZs-1" target="SwjVpoiH7Qk73Fy9ReZs-58">
          <mxGeometry relative="1" as="geometry">
            <mxPoint x="250" y="160" as="sourcePoint" />
            <mxPoint x="410" y="160" as="targetPoint" />
            <Array as="points">
              <mxPoint x="750" y="280" />
            </Array>
          </mxGeometry>
        </mxCell>
        <mxCell id="SwjVpoiH7Qk73Fy9ReZs-85" value="M" style="resizable=0;html=1;whiteSpace=wrap;align=left;verticalAlign=bottom;" connectable="0" vertex="1" parent="SwjVpoiH7Qk73Fy9ReZs-84">
          <mxGeometry x="-1" relative="1" as="geometry" />
        </mxCell>
        <mxCell id="SwjVpoiH7Qk73Fy9ReZs-275" value="M" style="text;html=1;align=center;verticalAlign=middle;resizable=0;points=[];autosize=1;strokeColor=none;fillColor=none;" vertex="1" parent="1">
          <mxGeometry x="190" y="10" width="30" height="30" as="geometry" />
        </mxCell>
        <mxCell id="SwjVpoiH7Qk73Fy9ReZs-358" value="" style="shape=table;startSize=0;container=1;collapsible=0;childLayout=tableLayout;fontSize=16;" vertex="1" parent="1">
          <mxGeometry x="242" y="1120" width="208" height="40" as="geometry" />
        </mxCell>
        <mxCell id="SwjVpoiH7Qk73Fy9ReZs-359" value="" style="shape=tableRow;horizontal=0;startSize=0;swimlaneHead=0;swimlaneBody=0;strokeColor=inherit;top=0;left=0;bottom=0;right=0;collapsible=0;dropTarget=0;fillColor=none;points=[[0,0.5],[1,0.5]];portConstraint=eastwest;fontSize=16;" vertex="1" parent="SwjVpoiH7Qk73Fy9ReZs-358">
          <mxGeometry width="208" height="40" as="geometry" />
        </mxCell>
        <mxCell id="SwjVpoiH7Qk73Fy9ReZs-360" value="&lt;u&gt;dnum&lt;/u&gt;" style="shape=partialRectangle;html=1;whiteSpace=wrap;connectable=0;strokeColor=inherit;overflow=hidden;fillColor=none;top=0;left=0;bottom=0;right=0;pointerEvents=1;fontSize=16;" vertex="1" parent="SwjVpoiH7Qk73Fy9ReZs-359">
          <mxGeometry width="69" height="40" as="geometry">
            <mxRectangle width="69" height="40" as="alternateBounds" />
          </mxGeometry>
        </mxCell>
        <mxCell id="SwjVpoiH7Qk73Fy9ReZs-361" value="BD" style="shape=partialRectangle;html=1;whiteSpace=wrap;connectable=0;strokeColor=inherit;overflow=hidden;fillColor=none;top=0;left=0;bottom=0;right=0;pointerEvents=1;fontSize=16;" vertex="1" parent="SwjVpoiH7Qk73Fy9ReZs-359">
          <mxGeometry x="69" width="70" height="40" as="geometry">
            <mxRectangle width="70" height="40" as="alternateBounds" />
          </mxGeometry>
        </mxCell>
        <mxCell id="SwjVpoiH7Qk73Fy9ReZs-362" value="GENDER" style="shape=partialRectangle;html=1;whiteSpace=wrap;connectable=0;strokeColor=inherit;overflow=hidden;fillColor=none;top=0;left=0;bottom=0;right=0;pointerEvents=1;fontSize=16;" vertex="1" parent="SwjVpoiH7Qk73Fy9ReZs-359">
          <mxGeometry x="139" width="69" height="40" as="geometry">
            <mxRectangle width="69" height="40" as="alternateBounds" />
          </mxGeometry>
        </mxCell>
        <mxCell id="SwjVpoiH7Qk73Fy9ReZs-371" value="SSN" style="rounded=0;whiteSpace=wrap;html=1;" vertex="1" parent="1">
          <mxGeometry x="450" y="1120" width="80" height="40" as="geometry" />
        </mxCell>
        <mxCell id="SwjVpoiH7Qk73Fy9ReZs-373" value="" style="shape=image;verticalLabelPosition=bottom;labelBackgroundColor=default;verticalAlign=top;aspect=fixed;imageAspect=0;image=data:image/jpeg,/9j/4AAQSkZJRgABAQAAAQABAAD/2wBDAAcFBQYFBAcGBgYIBwcICxILCwoKCxYPEA0SGhYbGhkWGRgcICgiHB4mHhgZIzAkJiorLS4tGyIyNTEsNSgsLSz/wAALCAK5BXYBAREA/8QAHAABAQADAQEBAQAAAAAAAAAAAAYBBAUDBwII/8QATRAAAQIEAgQNAQgBAwIEBQMFAAECAwQFBhGVEhZW1AcTFBchMTdUdZOz0tNBFSIyNlFSYbRxIyQzQoEINFWRJTVTcrImksFidIKEof/aAAgBAQAAPwD+kQAAAAAAAAAAAAAAAAAAAAAAAAAAAAAAAAAAAAAAAAAAAAAAAAAAAAAAAAAAAAAAAAAAAAAAAAAAAAAAAAAAAAAAYb1GQAAAfMJOuTs7dVYlpm4rklWytTWWgwJCjtjS6Q0axUR0Xkz8OlelVcmCfp1n5lL2q8rO3ZAnZjjXQosRtIxY1qaSROKSH0ImOD3Ql+9iv3+vA5sjdVajxKFK1O4axB42QjxYsWlUtkzEixGTHFo5zGy8TRbo/o1qY4H0W049UmLYlotWZFSafpL/AKzEhxHQ9JdBXsRERr1ZgqtwTBejBOpO8AAAAAAAAAAAAAAAAAAAAAAAAAAAAAAAAAAAAAAAAAAAAAAAAAAAAAAAAAAAAAAAAAAAAAAAAAAAAAAAADDeoyAAACUh2ZFlqnPTchc1Zp7J6ZWaiy8Fss9mmqIi4acFzkRUanRpH5i2BSYtSlZ18SaWLKT8WoMTTRGufEwVWuRG9LEcjXInWioi4mxR7PkKJUJeblosy+JLS8SVZxjm4aD4vGuxwanTpdCfx/7lKAAAAAAAAAAAAAAAAAAAAAAAAAAAAAAAAAAAAAAAAAAAAAAAAAAAAAAAAAAAAAAAAAAAAAAAAAAAAAAAAAYb1GQAAAAAAAAAAAAAAAAAAAAAAAAAAAAAAAAAAAAAAAAAAAAAAAAAAAAAAAAAAAAAAAAAAAAAAAAAAAAAAAAAAAAAAYb1GQAAAAAAAAAAAAAAAAAAAAAAAAAAAAAAAAAAAAAAAAAAAAAAAAAAAAAAAAAAAAAAAAAAAAAAAAAAAAAAAAAAAAAAYb1GQACa4R+y26/CJv0XDm4snY2gZbB9o5uLJ2NoGWwfaObiydjaBlsH2jm4snY2gZbB9o5uLJ2NoGWwfaObiydjaBlsH2jm4snY2gZbB9o5uLJ2NoGWwfaObiydjaBlsH2jm4snY2gZbB9o5uLJ2NoGWwfaObiydjaBlsH2jm4snY2gZbB9o5uLJ2NoGWwfaObiydjaBlsH2jm4snY2gZbB9o5uLJ2NoGWwfaObiydjaBlsH2jm4snY2gZbB9o5uLJ2NoGWwfaObiydjaBlsH2jm4snY2gZbB9o5uLJ2NoGWwfaObiydjaBlsH2jm4snY2gZbB9o5uLJ2NoGWwfaTtm2FaE1RJmJHtSiRnpU6hDRX0+Eqoxk7Ga1uKt6kaiNRPoiIn0KLm4snY2gZbB9o5uLJ2NoGWwfaObiydjaBlsH2jm4snY2gZbB9o5uLJ2NoGWwfaObiydjaBlsH2jm4snY2gZbB9o5uLJ2NoGWwfaObiydjaBlsH2jm4snY2gZbB9o5uLJ2NoGWwfaObiydjaBlsH2jm4snY2gZbB9o5uLJ2NoGWwfaObiydjaBlsH2jm4snY2gZbB9o5uLJ2NoGWwfaObiydjaBlsH2jm4snY2gZbB9o5uLJ2NoGWwfaObiydjaBlsH2jm4snY2gZbB9o5uLJ2NoGWwfaObiydjaBlsH2jm4snY2gZbB9pOydh2g7hFq8q61KIsCHTJGIyF9nwtFHOizaOVE0cEVUaxFX66KfohRc3Fk7G0DLYPtHNxZOxtAy2D7RzcWTsbQMtg+0c3Fk7G0DLYPtHNxZOxtAy2D7RzcWTsbQMtg+0c3Fk7G0DLYPtHNxZOxtAy2D7RzcWTsbQMtg+0c3Fk7G0DLYPtHNxZOxtAy2D7RzcWTsbQMtg+0c3Fk7G0DLYPtHNxZOxtAy2D7RzcWTsbQMtg+0c3Fk7G0DLYPtHNxZOxtAy2D7RzcWTsbQMtg+0c3Fk7G0DLYPtHNxZOxtAy2D7RzcWTsbQMtg+0c3Fk7G0DLYPtHNxZOxtAy2D7RzcWTsbQMtg+0c3Fk7G0DLYPtJ24rDs+BXrWhwrUosNsepvhxWsp8JEe1JKZcjVRG9KaTUXBfq1F+iFFzcWTsbQMtg+0c3Fk7G0DLYPtHNxZOxtAy2D7RzcWTsbQMtg+0c3Fk7G0DLYPtHNxZOxtAy2D7RzcWTsbQMtg+0c3Fk7G0DLYPtHNxZOxtAy2D7RzcWTsbQMtg+0c3Fk7G0DLYPtHNxZOxtAy2D7RzcWTsbQMtg+0c3Fk7G0DLYPtHNxZOxtAy2D7RzcWTsbQMtg+0c3Fk7G0DLYPtHNxZOxtAy2D7RzcWTsbQMtg+0c3Fk7G0DLYPtJ2+7CtGU4OrjmZW1KJAjwaZMxIUWHT4TXMckJyorVRuKKipimBRc3Fk7G0DLYPtHNxZOxtAy2D7RzcWTsbQMtg+0c3Fk7G0DLYPtHNxZOxtAy2D7RzcWTsbQMtg+0c3Fk7G0DLYPtHNxZOxtAy2D7RzcWTsbQMtg+0c3Fk7G0DLYPtHNxZOxtAy2D7RzcWTsbQMtg+0c3Fk7G0DLYPtHNxZOxtAy2D7RzcWTsbQMtg+0c3Fk7G0DLYPtHNxZOxtAy2D7RzcWTsbQMtg+0c3Fk7G0DLYPtHNxZOxtAy2D7RzcWTsbQMtg+0nbNsK0JqiTMSPalEjPSp1CGivp8JVRjJ2M1rcVb1I1EaifRERPoUXNxZOxtAy2D7RzcWTsbQMtg+0c3Fk7G0DLYPtHNxZOxtAy2D7RzcWTsbQMtg+0c3Fk7G0DLYPtHNxZOxtAy2D7RzcWTsbQMtg+0c3Fk7G0DLYPtHNxZOxtAy2D7RzcWTsbQMtg+0c3Fk7G0DLYPtHNxZOxtAy2D7RzcWTsbQMtg+0c3Fk7G0DLYPtHNxZOxtAy2D7RzcWTsbQMtg+0c3Fk7G0DLYPtHNxZOxtAy2D7RzcWTsbQMtg+0nZOw7Qdwi1eVdalEWBDpkjEZC+z4WijnRZtHKiaOCKqNYir9dFP0QoubiydjaBlsH2jm4snY2gZbB9o5uLJ2NoGWwfaObiydjaBlsH2jm4snY2gZbB9o5uLJ2NoGWwfaObiydjaBlsH2jm4snY2gZbB9o5uLJ2NoGWwfaObiydjaBlsH2jm4snY2gZbB9o5uLJ2NoGWwfaObiydjaBlsH2jm4snY2gZbB9o5uLJ2NoGWwfaObiydjaBlsH2jm4snY2gZbB9o5uLJ2NoGWwfaObiydjaBlsH2jm4snY2gZbB9o5uLJ2NoGWwfaObiydjaBlsH2jm4snY2gZbB9o5uLJ2NoGWwfaObiydjaBlsH2nyH/AMR1q27QuDqQmqTQabTo76nDhrElZOHCerVhRV0VVGp0YonR/CH9BgAE1wj9lt1+ETfouKUAAAAAAAAAAAAE1YX5dmvF6n/fjlKAAAAAAAAAAAATMj2pV3winetOlMAAAAAAAAAAAATNz/mOzvF4n9CbKYAAAAAAAAAE1wj9lt1+ETfouKUAAAAAAAAAAmrC/Ls14vU/78cpQAAAAAAAAATMj2pV3winetOlMAAAAAAAAAAAAfEf/FV2W07xeF6MY+3AA0ajPQqZS5qejNiPhSsJ0ZyQ26Tla1NJUa1OtcE6E+pH3JdNEuzgduidoVTl5+B9kTWPFu+8zGC7oe1fvNX+FRFL4AAAAAmrquVbdbTocKBBjTFTmmysvymY5PARytV334miqtxRqoiI1yq7BMOnFOZPXzPU6UloM5RWSdUmZ/7Ohw5iaWFKOdoq9HNmFh4uYrUwTBmkr/u4J1njVOEKZoMrJPq9vxpd7p9ZKa0IquZDYjFiLHhuVqLEho1MV6GqmDv29NLTa0lQrdVp6QdFKfxSJE08Uio9iPxww6MOrrXE7IAAAABNWF+XZrxep/345SgAAAAjbbuetV+nQKrEo1OkqTE01dESovfHY1iq3Hi+IRuOLerS6v8A2PaQ4RbYn5WYmYVRckKBAbM4xJaLC04Tl0Wuho9iLERXfdTQ0sVwTrVEP3r/AG7yZIyzUy1VmFlEhLIR0j8ajNPQ4lWaeKt6UTR6foKdf9tVRHulqp/psl3TXGRYESFD4tmGmqPc1GroKqI5EXFq9DkRTfolx024Uj/Z0eKrpdWpEhx5eJAiMxTFqrDe1rtFU6lwwX6L0HaAAAABMyPalXfCKd606UwAAAAOJLVzj7xnqJybR5JKwZnjtP8AHpue3R0cOjDQ68en/sakC+bfmKz9lQ51/KuOfL/elYrYfGMRVezjFajNJERV0dLHDp6jzhcIVtRZeajpPvhwZSXWaiRIkrFY18FOhYkNXMRIjMf+pmknV+qH5gcIdszE+yTZOx2R1jMgKyJJR4eg5+HFo9XMRGI7FNFXYI7/AKVXA3JO7aLPVp1KlpxzppNNGpxL0ZEVi4PbDiK1GPVq9aNVVT64YKUAAAAAJm5/zHZ3i8T+hNlMAAACYlb+tubm40tDqOCwoUSMr4kCJDhLDhrove2I5qNexF6NJqqn8n45wbaWmRp109GgwpeJDgxGxJSNDitdEw4tOKcxH4OxTBUbgv0Uyt+W8lOgzrZyKrYsV8uyA2UjcfxjExe1YOhptwRMVVWoiJgq9CoalN4SaJHolKn5+M6SfUJaHM8W1j4zYDHu0WrEiNZosaruhHP0UXD+FO3IXHTanV5ylSb4sSYkHaEx/t4iMhuwRdHjFboq7BUXBFxw6TsgAAE1wj9lt1+ETfouKUAAA51UqsnRZF05PRHMhI9rfuQ3RHPcqojWtY1Fc5yrgiIiKpqSl00ef4psGadpRYUWMjXwXsejIao2JpNc1FaqOVEVrkRf4NGJwg2zBjwob6i7GLCgx0wloqtZDirhDdEcjMIbVXoxeqIn1wNnXCh/bbqXy5zZpHOh/wDC/inPa3ScxsXR0HREb0qxHK5MOroU2aBcFPuKmMqNNiRYko78MWJLxIKPTBPvN02oqt/lMU/noNaoXZTaTOzkGejthtleIRGw2xIsZ7oqqjWpDaxVcq6PQjFcq9OKJh05tS5Id0UiLUIMu6BDhzUaWRrlXFyQ3qzSVFRFaq4Y6KpinUUAAABNWF+XZrxep/345SgAAA49y1l1vWvUqukvynkMu+PxOnoaeimOGOC4Y/4Umpu+qpSZOpuq1DlYceUpjqnCZKz6xmxGNXBWOc6ExWOxww+65F6f0wOlTrlqn2xJSFco0vIfaMNz5SNKTqzDHOa3Scx+MOGrXaPSmCORcF6UwTGrAAAAJmR7Uq74RTvWnSmAAAABJVG46yy7I1Do1FkZ18vJw5t8SaqDpfoe5zUa1Gwn4r9zrVUFIvWFV6nSpODJRoaVCVmI73RHIjoD4L2Q3w1aiKirpPwxRcOj64nOnOEqFT6nKS0zTXJLRqhMSMWYbFxSAkLRRIjm6P4Vc5EXp+6nTiuBmu8I6UaafDfS+MhQqslOixOOw0GcS2K6Lho/RF/Dj9McfodRt3JE4RdWGSOkxsq6YfN8b0I9ND/T0MP2xGLjj/1J0FSAAAAD4j/4quy2neLwvRjH24Aipumw67whVGUm5ypsl5SmScSFBlKjHlWte+LMo9VSC9uKqkJidOOGHR9T1qNjycOmTT5CLWo82kJywYcS4J9rXvRq6KKvHdCKuCKfJJXgBg2XYVx12qVaLM1WFSJvCFKPdCgMxguxRV6HPT/OCL9UU/osAAAAAjL8n3S0pLwGSbqjDi48dIRKbMTEvMw8MFa98GDE4tUXBUxauOGGH1SOkZp1PoUxLQaQ/iJmadFiUJaBP8gSCrUbxbXrKqrfvJxnRDRFcqpo9OkYpCSsrFkXxqdOSsrCqUWbfTZWhVFZaXhOl3QuLh4yyIuLl01+6xMXL0frQcGshyCer0NkWeiykSJC5JyqnzEs6HBYzRaxViw2I5W4aKaKquCIq4Kp9FAAAAAJqwvy7NeL1P8AvxylAAAABEWnwfSNu25xTqZSmVt8KNDiT0CA1HP03KqYv0UcqYaOOP6HPj2PXYVLkYNOnpeVmZWiwqcqsivhYubEY56Ne1ukxrmtVumiaTcUVEMUCw6rI1mBOzT5ZGMqiz/F8rjzbmMWVWDo8bFTSc5HYLiuHR9E6j8x+DidnqHL0yPNS0NrJCfk3PZivTHiNexUTBMURG9PSi/p+p2LLtmdos3PTk/LwIMaYbChN4upTU+7RYi/iiR1TBMV6GtamH1VfpZAAAAAmZHtSrvhFO9adKYAAAAEbN0u45G+p2tUqSpk7LzcnAltCanXy7mKxz1VcGwXoqLpp9U6jXg2fUoTZR7YspCiQazM1JXNxXBkRsVG4YtTFycY3FFwTo6yeg8G1yR5WbSoTUvEmJikxKe98SpTE3xkRXMdxmERuENrtFcWMTBOj8WP3aSftGenKjUZiHFl2Mmp6nzUNqqqKjICsV6L93rXR6P+2OBzrbsCbolyy8WK2BFkpONMRYMdahNRHqsRXYIkurkgwlRHKiuTS0sOhGqvR9IAAAABM3P+Y7O8Xif0JspgAADzexHwnMXqVMOg+M023KtcaNt2LAiQKbTqPNU2HOPlJiDp6bmJCVzYzGKrtFnSkNXImGOmmKId+QsCp6LoszCk4Ed03JRFT7Sm55VhwH6a4xI3UuKrgxGoifVy49G4tpVuQrr6xTnSMeZ5bMxGwY8V8NnExmsTpc1iqj2uhtXDBUVMUxTrTgLwV1RJOWg6UnNrFp8GQm9KoTcrDZoK7FyQ4KpxzVR6/cerMFT8XSuF/btEjUeZrL4joTmz88szD0MehnFw2IjsU6/uL+vRh0nfAAAJrhH7Lbr8Im/RcUoAABwropkxVqI6WlZeWjxOMZEayPFiQEXByL92LD+/CcnWj2oqov0Jd9pXTBZIzEvNSMeabKzUnEZNzUWJxEOK9rmK2KrFdFWGjUT76NV31chyYVm3E6NUKDCgyrJaZo0hT5mbiOeiM0Ee2IsL7ipEXD/pVWYdCr14G9KcHE5KXG6K3iIki2ejTzI0SoTekjnoqo1JZHJBa5HOw0+nFv8A0Y9J3KVUZazrdpFDn4M/FmJOShQnOp9MmZmFi1uiuD4cNU606lwX9UOfO29UK3WnXPSUhoqRJWNKwJ5saVV6wkjMiNiNczSh4ti9C6K9KIuGHX37PpNQo9Ijwqm6WdNR5yPNKku5ysYkR6vRqK5EVcMcOoogAACasL8uzXi9T/vxylAAABwbvo0eu2bV6RKLCSPPSr4ENYvQxFVuCaWCKuH/AGUiX8HdTjUupSsrS6BbqTNMiybZemxXOhzMV+joxIuEFiJoaOCLovX77ulOpaKRo9en67Sp2twKfIwKPDdxMCTmnzCxYjmaGk5XQ2aKNbjgiI7FV60w6bIAAAAmZHtSrvhFO9adKYAAAAEbUKVcUpe8zXKRJ0ucgzEhClNCbnXy6scx73Y4NhPRUXST6p1GlJ2bV6EtGn6a+SqM/Iw5mHMMmIjpdkZY70iPcxzWvVuD06EVq4p9UMyNizazMnGqqycykSJPRp+C3S0MZhETi2Yp95qImCqujj14J1JzZDg0qUOEspUZ+BPSq1KNGV79LTfLOk+Tsa7owWInRiuOC4Y449B0bUsqr0ioUyfq05LTk7DhTKTsSHpJpviLCRmgip+FGQURer/uX4AAAAPiP/iq7Lad4vC9GMfbgCZke1Ku+EU71p07NQmXSVMmpmDLPmokGE6JDgQsNOKqIqo1uPRiuGCHzipcJ1q3zwVXR9kVFvKvsebV0nHwZHZ/oux+7j04fVWqqfyfVAAAAAAAAAAAAATVhfl2a8Xqf9+OUoAAAAAAAAAAABMyPalXfCKd606UwAAAAAAAAAAABM3P+Y7O8Xif0JspgAAAAAAAAATXCP2W3X4RN+i4pQAADX5RAbHZAdFY2M5MWw9JMVRPqideA5RAbHZAdFY2M5MWw9JMVRPqideA5RAbHZAdFY2M5MWw9JMVRPqideA5RAbHZAdFY2M5MWw9JMVRPqideA5RAbHZAdFY2M5MWw9JMVRPqideA5RAbHZAdFY2M5MWw9JMVRPqideA5RAbHZAdFY2M5MWw9JMVRPqideBsAAAE1YX5dmvF6n/fjlKAAAAAAAAACZke1Ku+EU71p0pgAAAeEaPCl4Lo0aKyDDYmKve5GtRP5Veow+YgQZZY8SPDZAamKxFciNRP89WAfMQIMsseJHhsgNTFYiuRGon+erAPmIEGWWPEjw2QGpisRXIjUT/PVgHzECDLLHiR4bIDUxWIrkRqJ/nqwD5iBBlljxI8NkBqYrEVyI1E/wA9WAfMQIMsseJHhsgNTFYiuRGon+erAPmIEGWWPEjw2QGpisRXIjUT/PVgejHNexHNXFqp0YdWB6AAAA+I/wDiq7Lad4vC9GMfSeENVbwYXQ5rtFzaVNKip0YLxLhzc2VshQ8vhe0c3NlbIUPL4XtJ6TsO0XcI1YlXWtR1gMpcjEZD5BD0UcsWaRyomjgiqjWIq/XRT9DrT/Bxa0SmTTKfatvQpx0JyQXxKbCVrH4Loq5NHpRFwxQ+dReAm2bJ4OLkqUXjKrV4VKmnpMRm6LIa8S78ENFwT/urlT6Kh91AAAAAAAAAAAABNWF+XZrxep/345SgAAAAAAAAAAAEzI9qVd8Ip3rTpTAAAAAAAAAAAAEzc/5js7xeJ/QmymAAAAAAAAABNcI/ZbdfhE36LilAAAOdEotOj1mXq0SThPn5aG6FCj6P3mMXran8KIlFp0esy9WiScJ8/LQ3QoUfR+8xi9bU/hREotOj1mXq0SThPn5aG6FCj6P3mMXran8KIlFp0esy9WiScJ8/LQ3QoUfR+8xi9bU/hREotOj1mXq0SThPn5aG6FCj6P3mMXran8KIlFp0esy9WiScJ8/LQ3QoUfR+8xi9bU/hREotOj1mXq0SThPn5aG6FCj6P3mMXran8KdEAAAmrC/Ls14vU/78cpQAAAAAAAAATMj2pV3winetOlMAAADSqdMkqxTI1PqEuyZlI7NCJCf+F7f0U85yi06oUV9JmpWFGp8SGkJYDvwqxMMG/wCOgTlFp1Qor6TNSsKNT4kNISwHfhViYYN/x0CcotOqFFfSZqVhRqfEhpCWA78KsTDBv+OgTlFp1Qor6TNSsKNT4kNISwHfhViYYN/x0CcotOqFFfSZqVhRqfEhpCWA78KsTDBv+OgTlFp1Qor6TNSsKNT4kNISwHfhViYYN/x0CcotOqFFfSZqVhRqfEhpCWA78KsTDBv+Og24ECHLQIcCCxrIcJEaxqdSIiYIh7AAAA+I/wDiq7Lad4vC9GMfSeEfstuvwib9FxSgmZHtSrvhFO9adKY5lapUCuUGfpEzEiMl56XiS0R0PBHIx7dFdHFFTHBejoU5uq9X27uDyZDdhqvV9u7g8mQ3Yar1fbu4PJkN2Gq9X27uDyZDdhqvV9u7g8mQ3Yar1fbu4PJkN2Gq9X27uDyZDdhqvV9u7g8mQ3Yar1fbu4PJkN2Gq9X27uDyZDdhqvV9u7g8mQ3Yar1fbu4PJkN2OJd0OctG06hXJy+q9xUlCV6N4qQTTd1NYn+261dghzuDeenr+siUrcK9q5CjLjCmYDIUiqQ4rfxN/wDLdSpgqfwqFZqvV9u7g8mQ3Yar1fbu4PJkN2Gq9X27uDyZDdhqvV9u7g8mQ3Yar1fbu4PJkN2Gq9X27uDyZDdhqvV9u7g8mQ3Yar1fbu4PJkN2OLdUObtK1qhXJy+q7xMlCV+HFSCabuprU/23WrsGofN+BC7q/fESo0qr3lWJSowlWZhNhQpbCJDVcHYcZBcqaLlwwRcETBERMD7FqvV9u7g8mQ3Yar1fbu4PJkN2NOQsicpsu6BKXnX4cN8WLGVvFyS/fiPWJEXpl163uVcOpOpME6Dc1Xq+3dweTIbsNV6vt3cHkyG7DVer7d3B5Mhuw1Xq+3dweTIbsNV6vt3cHkyG7DVer7d3B5Mhuw1Xq+3dweTIbsNV6vt3cHkyG7DVer7d3B5Mhuw1Xq+3dweTIbsNV6vt3cHkyG7DVer7d3B5Mhuw1Xq+3dweTIbsNV6vt3cHkyG7DVer7d3B5Mhuw1Xq+3dweTIbsNV6vt3cHkyG7DVer7d3B5Mhuw1Xq+3dweTIbsNV6vt3cHkyG7DVer7d3B5Mhuw1Xq+3dweTIbsNV6vt3cHkyG7DVer7d3B5Mhuw1Xq+3dweTIbsaUOyZ2HU49Rbedf5VHhQ5eI/ipLpZDV7mJhybBMFiP6kx+909SYbuq9X27uDyZDdhqvV9u7g8mQ3Yar1fbu4PJkN2Gq9X27uDyZDdhqvV9u7g8mQ3Yar1fbu4PJkN2Gq9X27uDyZDdhqvV9u7g8mQ3Yar1fbu4PJkN2Gq9X27uDyZDdhqvV9u7g8mQ3Yar1fbu4PJkN2Gq9X27uDyZDdhqvV9u7g8mQ3Yar1fbu4PJkN2Gq9X27uDyZDdhqvV9u7g8mQ3Yar1fbu4PJkN2Gq9X27uDyZDdhqvV9u7g8mQ3Yar1fbu4PJkN2Gq9X27uDyZDdhqvV9u7g8mQ3Yar1fbu4PJkN2Gq9X27uDyZDdjSmrInpuako8e868+JJRVjQF4qRTQerHMx6Jfp+696YLin160Q3dV6vt3cHkyG7DVer7d3B5Mhuw1Xq+3dweTIbsNV6vt3cHkyG7DVer7d3B5Mhuw1Xq+3dweTIbsNV6vt3cHkyG7DVer7d3B5Mhuw1Xq+3dweTIbsNV6vt3cHkyG7DVer7d3B5Mhuw1Xq+3dweTIbsNV6vt3cHkyG7DVer7d3B5Mhuw1Xq+3dweTIbsNV6vt3cHkyG7DVer7d3B5Mhuw1Xq+3dweTIbsNV6vt3cHkyG7DVer7d3B5Mhuxp1GyJ2rUuap07elfjSk3CdLxofFSTdNjmq1yYpLoqYovWim5qvV9u7g8mQ3Yar1fbu4PJkN2Gq9X27uDyZDdhqvV9u7g8mQ3Yar1fbu4PJkN2Gq9X27uDyZDdhqvV9u7g8mQ3Yar1fbu4PJkN2Gq9X27uDyZDdhqvV9u7g8mQ3Y40xTK5BvCn0lL2rXETMjMzL3cRI6WlDfAa1E/22GGEV2PR9E6vr2dV6vt3cHkyG7DVer7d3B5Mhuw1Xq+3dweTIbsNV6vt3cHkyG7DVer7d3B5Mhuw1Xq+3dweTIbsNV6vt3cHkyG7DVer7d3B5Mhuw1Xq+3dweTIbsNV6vt3cHkyG7GnIWROU2XdAlLzr8OG+LFjK3i5JfvxHrEiL0y69b3KuHUnUmCdBuar1fbu4PJkN2Gq9X27uDyZDdhqvV9u7g8mQ3Yar1fbu4PJkN2Gq9X27uDyZDdhqvV9u7g8mQ3Yar1fbu4PJkN2Gq9X27uDyZDdhqvV9u7g8mQ3Yar1fbu4PJkN2Gq9X27uDyZDdhqvV9u7g8mQ3Yar1fbu4PJkN2Gq9X27uDyZDdhqvV9u7g8mQ3Yar1fbu4PJkN2Gq9X27uDyZDdhqvV9u7g8mQ3Yar1fbu4PJkN2Gq9X27uDyZDdjSh2TOw6nHqLbzr/Ko8KHLxH8VJdLIavcxMOTYJgsR/UmP3unqTDd1Xq+3dweTIbsNV6vt3cHkyG7DVer7d3B5Mhuw1Xq+3dweTIbsNV6vt3cHkyG7DVer7d3B5Mhuw1Xq+3dweTIbsNV6vt3cHkyG7DVer7d3B5Mhuw1Xq+3dweTIbsNV6vt3cHkyG7DVer7d3B5Mhux87q15RKVwwU6yH3vXHcqh4RpjipD/AEo7sFhQ8OTfVP8A/r2/yfRNV6vt3cHkyG7DVer7d3B5Mhuw1Xq+3dweTIbsNV6vt3cHkyG7DVer7d3B5Mhuw1Xq+3dweTIbsNV6vt3cHkyG7DVer7d3B5Mhuw1Xq+3dweTIbsNV6vt3cHkyG7DVer7d3B5Mhuw1Xq+3dweTIbscC6+CuFeNIhU+v3bXJuWhRWx2w3Mk2Ij0a5qL9yAi9TndGOHSd/hH7Lbr8Im/RcUoJmR7Uq74RTvWnSmAAAAAABMXhZNLvany0pWHTD5KXi8oWXhxeLZGVEVER+CaWCY44IqdJP8ABBZtMtu0JCp018zDdV6fKR5iXWLpwuN4tFV7UVMWqul09OHV0Jgh9HAAABpzUlLzsNIM1Lwo8NHtiaERiOTFqorVwX6oqIqL9FJ2yJSXfIzE06XhLMwqpU2Q4ioiuYizsXFEXrRFwTFP8FcAAAAAAAAAAAAAAAAAAAAAAAAAAAAAAAAAAAAAAAAAACanO1KjeET/AK0oUoAAAAAAAAAAAAAAAAAAAAAPjNY4G7XnuEOBCmuXRpqqSs/PxZ1ZhUjsjNjS3FqzBEamgkV6Imjhh144Jh9fgsdDhNY6I6IqJhprhiv89CIn/sh7gAAAAGG9RN8I/ZbdfhE36LilBMyPalXfCKd606UwAAAAAAPw/wD43f4UnuDzsytjwqU9JpSAAAAE1Yv/AMkn/F6j/cilKAAAAAAAAAAAAAAAAAAAAAAAAAAAAAAAAAAAAAAAAAACanO1KjeET/rShSgAAAAAAAAAAAAAAAAAAAAAmZ7tSofhFQ9aSKYAAAAAGG9RN8I/ZbdfhE36LilBMyPalXfCKd606UwAAAAAAPw//jd/hSe4POzK2PCpT0mlIAAAATVi/wDySf8AF6j/AHIpSgAAAAAAAAAAAAAAAAAAAAAAAAAAAAAAAAAAAAAAAAAAmpztSo3hE/60oUoAAAAAAAAAAAAAAAAAAAAAJme7UqH4RUPWkimAAAAABhvUTfCP2W3X4RN+i4pQTMj2pV3winetOlMAAAAAAD8P/wCN3+FJ7g87MrY8KlPSaUgAAABOTNiWnOzMSam7Yo8xMRXK6JFiyUN73qvWqqrcVU/PNzZWyFDy+F7Rzc2VshQ8vhe0c3NlbIUPL4XtHNzZWyFDy+F7Rzc2VshQ8vhe0c3NlbIUPL4XtHNzZWyFDy+F7Rzc2VshQ8vhe0c3NlbIUPL4XtHNzZWyFDy+F7Rzc2VshQ8vhe0c3NlbIUPL4XtHNzZWyFDy+F7Rzc2VshQ8vhe0c3NlbIUPL4XtNOyKfK0yfumSkZWDKSkCqtSFAgsRjIaLJyzlRrU6ExVcej6liAAAAAAAAAAAAAAAAAAAAAAAAAAAAAAAAAACanO1KjeET/rShSgAAAAAAAAAAAAAAAAAAAAAmp3tSonhFQ9aTKUAAAAAGG9RN8I/ZbdfhE36LilBMyPalXfCKd606UwBM39UpyjWHVp+nTDpeagwsYURGtdoLiiY4ORU/wDdFOFVqhWrVmnyz65HqkOcpk3HgvmoUFI0vGgtRyK3i2Ma5iovSjmquKJ04YoaVDrk7GtePUUuG5JqdZSnzXFz1IbLyyROL0sWv5MxFwXqTSVFT9UFr1OuVl9KbL1y4phk5Jq+ejTdLhyzJVVYitdBc6XY17tPoRP9RFbiqp0Ip2LESrzc5V41RuKoVBkjPx5KHAjQpZrdFmjouXi4TXaX/dE/guAAAflUxbh+qEjT7KnaVTZWnyN5VuBKSsNkGDDSFJroQ2IjWtxdAVVwRETFVVTb1YrO3Nc8iR3casVnbmueRI7uNWKztzXPIkd3GrFZ25rnkSO7jVis7c1zyJHdxqxWdua55Eju41YrO3Nc8iR3casVnbmueRI7uNWKztzXPIkd3GrFZ25rnkSO7jVis7c1zyJHdxqxWdua55Eju41YrO3Nc8iR3casVnbmueRI7uNWKztzXPIkd3GrFZ25rnkSO7jVis7c1zyJHdxqxWdua55Eju41YrO3Nc8iR3casVnbmueRI7uNWKztzXPIkd3GrFZ25rnkSO7jVis7c1zyJHdxqxWdua55Eju41YrO3Nc8iR3cnbdt6qPrd0tbeFYhuh1NrVVkGT/1F5JLri7GAqIuCo3owTBqdGOKrRasVnbmueRI7uNWKztzXPIkd3GrFZ25rnkSO7jVis7c1zyJHdxqxWdua55Eju41YrO3Nc8iR3casVnbmueRI7uNWKztzXPIkd3GrFZ25rnkSO7jVis7c1zyJHdxqxWdua55Eju41YrO3Nc8iR3casVnbmueRI7uNWKztzXPIkd3GrFZ25rnkSO7jVis7c1zyJHdxqxWdua55Eju41YrO3Nc8iR3casVnbmueRI7uNWKztzXPIkd3GrFZ25rnkSO7jVis7c1zyJHdxqxWdua55Eju41YrO3Nc8iR3casVnbmueRI7uNWKztzXPIkd3GrFZ25rnkSO7jVis7c1zyJHdxqxWdua55Eju41YrO3Nc8iR3casVnbmueRI7uNWKztzXPIkd3GrFZ25rnkSO7jVis7c1zyJHdxqxWdua55Eju41YrO3Nc8iR3casVnbmueRI7uNWKztzXPIkd3GrFZ25rnkSO7jVis7c1zyJHdxqxWdua55Eju41YrO3Nc8iR3casVnbmueRI7uNWKztzXPIkd3GrFZ25rnkSO7jVis7c1zyJHdxqxWdua55Eju41YrO3Nc8iR3casVnbmueRI7uNWKztzXPIkd3GrFZ25rnkSO7jVis7c1zyJHdxqxWdua55Eju41YrO3Nc8iR3casVnbmueRI7uNWKztzXPIkd3GrFZ25rnkSO7jVis7c1zyJHdxqxWdua55Eju41YrO3Nc8iR3casVnbmueRI7uNWKztzXPIkd3GrFZ25rnkSO7jVis7c1zyJHdxqxWdua55Eju41YrO3Nc8iR3casVnbmueRI7uNWKztzXPIkd3GrFZ25rnkSO7jVis7c1zyJHdz9Uy14knXGVScrtQqseFLxJaEk0yA1sNj3Mc/BIUNnSqwmdePUUYAAAAAAAAAAAAAAAAAAAAAJqd7UqJ4RUPWkylAAAAABhvUTfCP2W3X4RN+i4pQTMj2pV3winetOlMAcm4KJAuKgTlImYsWDAnIfFufB0UenUv3dJFTHo+qKcqHZUF75iLUqtUqrMRpSJJQ4s1xLeIhvT76Q2w4bGoq4JiqtVehE6ugxJWbGlaU6mRLmrE3IclWUbLxmSqNRis0EwVkFrsUTq+9/k71NkIdMpUtIQHOWFKwmQWaeGOi1qNTHDDpwQ8KRRJejcuWXiRX8tmnzcTTw6HPwxRuCJ0dHRjiv8nVAAAAAAAAAAAAAAAAJm1f8A59eHi7f6UqUwAAAAAAAAAAAAAAAAAAAAAAAAAAAAAAAAAAAAAAAAAAAAAAAAAAAAAAAABNTvalRPCKh60mUoAAAAAMN6ib4R+y26/CJv0XFKCZke1Ku+EU71p0pjRqVRlqTS5mpTkXipSUhOjxn6KroMYiucuCIqrgidSJicjXykdzuDIJ/4Rr5SO53BkE/8I18pHc7gyCf+Ea+UjudwZBP/AAjXykdzuDIJ/wCEa+UjudwZBP8AwjXykdzuDIJ/4Rr5SO53BkE/8I18pHc7gyCf+Ea+UjudwZBP/CNfKR3O4Mgn/hGvlI7ncGQT/wAI18pHc7gyCf8AhGvlI7ncGQT/AMI18pHc7gyCf+Ea+UjudwZBP/CNfKR3O4Mgn/hGvlI7ncGQT/wjXykdzuDIJ/4Rr5SO53BkE/8ACNfKR3O4Mgn/AIRr5SO53BkE/wDCNfKR3O4Mgn/hGvlI7ncGQT/wjXykdzuDIJ/4Rr5SO53BkE/8JrS3CDQpiGsWXg1uKxHuh4w6FOuRHNcrXNxSD1o5NFU+iph9DZ18pHc7gyCf+Ea+UjudwZBP/CNfKR3O4Mgn/hGvlI7ncGQT/wAI18pHc7gyCf8AhGvlI7ncGQT/AMI18pHc7gyCf+Ea+UjudwZBP/CNfKR3O4Mgn/hGvlI7ncGQT/wjXykdzuDIJ/4Rr5SO53BkE/8ACcKg3VJydXuSPHp9eZDnag2PLr9hTq6bEloEPHohdH3mPTBcF6P0wO7r5SO53BkE/wDCNfKR3O4Mgn/hGvlI7ncGQT/wjXykdzuDIJ/4Rr5SO53BkE/8I18pHc7gyCf+Ea+UjudwZBP/AAjXykdzuDIJ/wCEa+UjudwZBP8AwjXykdzuDIJ/4Rr5SO53BkE/8I18pHc7gyCf+E8G8INDdNvlkhVtY8NrYj4aUKe0mNdijVVOJxRFVrkT9dFf0U99fKR3O4Mgn/hGvlI7ncGQT/wjXykdzuDIJ/4Rr5SO53BkE/8ACNfKR3O4Mgn/AIRr5SO53BkE/wDCNfKR3O4Mgn/hGvlI7ncGQT/wjXykdzuDIJ/4Rr5SO53BkE/8I18pHc7gyCf+Ea+UjudwZBP/AAjXykdzuDIJ/wCEa+UjudwZBP8AwjXykdzuDIJ/4Rr5SO53BkE/8I18pHc7gyCf+Ea+UjudwZBP/CNfKR3O4Mgn/hGvlI7ncGQT/wAI18pHc7gyCf8AhGvlI7ncGQT/AMI18pHc7gyCf+Ea+UjudwZBP/CNfKR3O4Mgn/hNeJwhUKXiQGRINchvjv4uEj6FPIsRyNV2i1OJ6V0WquCfRFX6Gxr5SO53BkE/8I18pHc7gyCf+Ea+UjudwZBP/CNfKR3O4Mgn/hGvlI7ncGQT/wAI18pHc7gyCf8AhGvlI7ncGQT/AMI18pHc7gyCf+Ea+UjudwZBP/CNfKR3O4Mgn/hGvlI7ncGQT/wjXykdzuDIJ/4Rr5SO53BkE/8ACNfKR3O4Mgn/AIRr5SO53BkE/wDCNfKR3O4Mgn/hGvlI7ncGQT/wjXykdzuDIJ/4Rr5SO53BkE/8I18pHc7gyCf+Ea+UjudwZBP/AAjXykdzuDIJ/wCEa+UjudwZBP8AwjXykdzuDIJ/4Rr5SO53BkE/8J4THCDQ5OVjTMxCrUCXgsdEiRYlCnmthtRMVVVWDgiIiYqqlYAAAAAAAAAAAAAAAAAAAAAAAACane1KieEVD1pMpQAAAAAYb1E3wj9lt1+ETfouKUEzI9qVd8Ip3rTpTE1wj9lt1+ETfouKUAAAAAAAAAAAAE1YX5dmvF6n/fjlKAAAAAAAAAAAATMj2pV3winetOlMAAAAAAAAAAAATNz/AJjs7xeJ/QmymAAAAAAAAAAAAJrhH7Lbr8Im/RcUoAAAAAAAAAAAAAAAAAAAAAAAAJqd7UqJ4RUPWkylAAAAABhvUTfCP2W3X4RN+i4pQTMj2pV3winetOlMTXCP2W3X4RN+i4pQAAAAAAAAAAAATVhfl2a8Xqf9+OUoAAAAAAAAAAABMyPalXfCKd606UwAAAAAAAAAAABM3P8AmOzvF4n9CbKYAAAAAAAAAAAAmuEfstuvwib9FxSgAAAAAAAAAAAAAAAAAAAAAAAAmp3tSonhFQ9aTKUAAAAAGG9RN8I/ZbdfhE36LilBMyPalXfCKd606UxNcI/ZbdfhE36LilAAAABwLyn5qlWNW6hJReKmpWSjRYT8EXRc1iqnQqKi9KfVCfbOVihTtGSYrsxVoFXhvY5k3CgNdAiNguitdDWExmLfuuRUcjvoqKmC4qfcNVj2RZdQiTWlM1SNLMmn6DU4xr2KrkwwwTFUTqRDh0S+a6625WFU5pv2nFnZaJBjshNRJiUiTLYbkw0dFHNx0Fw6cNBetT0pl6Vx1JuGVmZxr6i6cdCpcZYTGoxsSYfAY3BEwdoOZpLiiqqdeJb2VPTdTsWjz89G4+amZSHEixMETTcrUVVwaiIn/ZCgAAAABNWF+XZrxep/345SgAAAA5VeiVOFb09Eo0CFHqTYLuTQ4nQ10TD7qL0p9f5T/KEPTK3cbmT0vT6jOVCo/Zr40ORrsk2TmGTDVRE4tWw2Q4kPFcFVHORF0fv4KaUS563JUOsOg16fWag0iJM8VV6c2XmpeO3BEdDRsJkKLDRVwXBXoi6P3lRTt0e6anOVuhUyce2DOs5RAqcFrE0XxGMY5j2qqYo1yKj0w+jsF6i/AAAAAJmR7Uq74RTvWnSmAAAAIieu91I4R5ymznLokilNgx4cOUp8WawesSIjnLxLHOTFGon3ujo6PqTTr2ri2qk/DnXNiOodSnUV8BrFSJCitbDVWq3oVGrhoqn+UxN63bhn5mvQJaUrdYqjWyL48/DqdNbKcnxanFOhrxEJVxcjkw+8iomPRh04oVWuCVtm1rgnLhmKmyqvloUzKTMGA1qcdgmlDWFDY5HNcqLg5XIrcfrgqe8C9m1LhDm6LDuGVhwI74shLy8B8JZmXjQmo5Yui5FXpXjG/eRW/cZ0dK46sKoXDJ25e1SfdE/ORKKs1BlWRoEsjPuQmva52jBaquRV/XR/VDuWXORJ+K2I+vXHUHcQj3QqjSklIOK4dLXcmh4r+iI5ejpw+pbAAAAEzc/5js7xeJ/QmymAAAAAJe/6lO0exalPU6ZdKzUNGJDiIxr9DF7W4ojkVq9C/VFJ65KnXLRSdlW16PUuPpE3NS8aahQEjS8aCjVRURjGMcxdNOhzVVFTrwXA96JdVUm6pb9LnYrYc82JGl6mxsNEbEc2Dpw3txToa5MHJh/j6KfQgAAAACa4R+y26/CJv0XFKAAAAAAAAAAAAAAAAAAAAAAAACane1KieEVD1pMpQAAAAAYb1E3wj9lt1+ETfouKUEzI9qVd8Ip3rTpTE1wj9lt1+ETfouKUAAAAHDuenzFWtOo02DAhRos7BdL6D4/EJov+65dNGP0VRq4p913Tgn8kjTLdvKTqEvOz0tI1iJKQnQpVJytYNgI5MHK1sKQYiuVEwxdiqJ0JhiuPjTrRuiRmpHGRkZqRpkRYklIRa47iJZ2CoitVsij3aKKqIj3ORP8AKJhiPZVcj06iyT6DSf8A4LMNmZWL9uxEiYo7S0Xf7PBWquGKYfRPqiKZhWZX4VSps/8AYdKdGpsWZiwsa7FwVY7lc7SRJPp0VX7v6Fna9NmKPalPp8eDDgxZOEkHQZHWOmi3ob99WQ9JVREVfut6ej+TugAAAAmrC/Ls14vU/wC/HKUAAAAHPqVOl6tTY8jNMV8COxWPRHYLh+qKnSip9MOpThssWWjxY0SsVWpVqI+WdKw3TTobFgQ3Kiu0OJYz7yq1i6S4uTRTBU6cfOLYMvOw5pKpW6rVHx5R8i2LMOgosCG/DT0EZDa3SXBMVcjl+6hvPtKnPvCUuXRisn5WXdLfcciNiMXq0kw6VTpwww6/qUQAAAABMyPalXfCKd606UwAAAByYVGl4dzR6018VZiPLMlXM6NBrGOc5MEwxxxcuPT+nQcaJwe0p9N5C6PN8VyKZkOhzcdCO5HvX8P4kVOj6YdaKdCPbEpMT9PnUix4MeQgvlmOh6KcZCe1EVj8Wri3FEcmGGCtT+UXmUng/lqZCpkCLWqpUZSlInI5aa4hGQnNbotf9yGxznInVpq5EXpwxRFTcbZkjCtqRokKPNMgyMaHMQ47XN47jGP09JV0cFVzuvo6cV6j0iWhIOpFcproszxNddFdMLi3FixGIxdD7uCdCdGKL0n7pFAnKXFY+LctVqMBjNBsCahyyMTqwXGHBY7ow/dgd8AAAAmbn/MdneLxP6E2UwAAAAByLhoUvcdAmaRMxY0GDMo1HPgaKPTBUcippIqdafVFOQ+xZeaZPfalVqNUjzko+QSPMcUjoEF/4khthw2NRVXBVVWqvQnTgmBuRLQpcW6adcOEVk9IQVgNViojYjFTBEemHThiuHVhipRAAAAAE1wj9lt1+ETfouKUAAAAAAAAAAAAAAAAAAAAAAAAE1O9qVE8In/WkylAAAAABhvUTfCP2W3X4RN+i4pQTMj2pV3winetOlMTXCP2W3X4RN+i4pQAAAAAAAAAAAATVhfl2a8Xqf8AfjlKAAADlVOuStJnqdKR4cd8SoReJhcXCV7UVEx+8qfhT+VFTrkrSZ6nSkeHHfEqEXiYXFwle1FRMfvKn4U/lRU65K0mep0pHhx3xKhF4mFxcJXtRUTH7yp+FP5UVOuStJnqdKR4cd8SoReJhcXCV7UVEx+8qfhT+VFTrkrSZ6nSkeHHfEqEXiYXFwle1FRMfvKn4U/lRU65K0mep0pHhx3xKhF4mFxcJXtRUTH7yp+FP5UVOuStJnqdKR4cd8SoReJhcXCV7UVEx+8qfhT+VFTrkrSZ6nSkeHHfEqEXiYXFwle1FRMfvKn4U/lTqgAAAEzI9qVd8Ip3rTpTAAAAAAAAAAAAEzc/5js7xeJ/QmymAAAAAAAAAAAAJrhH7Lbr8Im/RcUoAAAAAAAAAAAAAAAAAAAAAAAAJqd7UqJ4RP8ArSZSgAAAAAw3qJvhH7Lbr8Im/RcUoJmR7Uq74RTvWnSmJrhH7Lbr8Im/RcUoAAAAAAAMYojcV+hwrUuukXhSYlRo0y2Ylocw+Aq9WDmLh/7KmCp/Cod4AAAE1YX5dmvF6n/fjlKAAAAAAAAAAAATMj2pV3winetOlMAAAAAAAAAAAATNz/mOzvF4n9CbKYAAAAAAAAAAAAmuEfstuvwib9FxSgAAAAAAAAAAAAAAAAAAAAAAAAmpztSo3hE/60oUoAAAAAMN6ib4R+y26/CJv0XFKCZke1Ku+EU71p0pjVmZaDOysaWmYDI0vGYsOJDiNRWvaqYK1UXoVFToVFOJzcWTsbQMtg+0c3Fk7G0DLYPtHNxZOxtAy2D7RzcWTsbQMtg+0c3Fk7G0DLYPtHNxZOxtAy2D7RzcWTsbQMtg+0c3Fk7G0DLYPtHNxZOxtAy2D7RzcWTsbQMtg+0c3Fk7G0DLYPtHNxZOxtAy2D7T8u4ObJRjlSzaB1f+mwfacGxrDtGc4PbdmZq1KJMTEemS0SJFiU+ErnuWE1VVVVuKqq9ZQc3Fk7G0DLYPtHNxZOxtAy2D7SfvHgrotVtaap9vW3bdPnppGwuVPkYbeIYqppuYrWKuno44dXTguKYERwS8DUvSJ6cm6hBpFwUqPEmZR7J6SasWFEgTD4TXQ9JHJouRqqqYp1p16J9X5uLJ2NoGWwfaObiydjaBlsH2jm4snY2gZbB9o5uLJ2NoGWwfaObiydjaBlsH2jm4snY2gZbB9o5uLJ2NoGWwfaObiydjaBlsH2jm4snY2gZbB9o5uLJ2NoGWwfaObiydjaBlsH2jm4snY2gZbB9o5uLJ2NoGWwfaObiydjaBlsH2jm4snY2gZbB9o5uLJ2NoGWwfaObiydjaBlsH2jm4snY2gZbB9pI01ODCqcItUs+BaNB5bT4TXq/7PgaL1/62N+71txTH/v8AtUrubiydjaBlsH2jm4snY2gZbB9o5uLJ2NoGWwfaObiydjaBlsH2jm4snY2gZbB9o5uLJ2NoGWwfaObiydjaBlsH2jm4snY2gZbB9o5uLJ2NoGWwfaObiydjaBlsH2jm4snY2gZbB9o5uLJ2NoGWwfaObiydjaBlsH2jm4snY2gZbB9o5uLJ2NoGWwfaObiydjaBlsH2jm4snY2gZbB9o5uLJ2NoGWwfaObiydjaBlsH2jm4snY2gZbB9o5uLJ2NoGWwfaObiydjaBlsH2jm4snY2gZbB9o5uLJ2NoGWwfaObiydjaBlsH2jm4snY2gZbB9o5uLJ2NoGWwfaObiydjaBlsH2jm4snY2gZbB9o5uLJ2NoGWwfaObiydjaBlsH2jm4snY2gZbB9o5uLJ2NoGWwfaObiydjaBlsH2jm4snY2gZbB9o5uLJ2NoGWwfaObiydjaBlsH2jm4snY2gZbB9o5uLJ2NoGWwfaObiydjaBlsH2jm4snY2gZbB9o5uLJ2NoGWwfaObiydjaBlsH2jm4snY2gZbB9o5uLJ2NoGWwfaObiydjaBlsH2jm4snY2gZbB9o5uLJ2NoGWwfaObiydjaBlsH2jm4snY2gZbB9o5uLJ2NoGWwfaObiydjaBlsH2jm4snY2gZbB9o5uLJ2NoGWwfaObiydjaBlsH2jm4snY2gZbB9o5uLJ2NoGWwfaObiydjaBlsH2jm4snY2gZbB9o5uLJ2NoGWwfaObiydjaBlsH2jm4snY2gZbB9o5uLJ2NoGWwfaObiydjaBlsH2jm4snY2gZbB9o5uLJ2NoGWwfaObiydjaBlsH2jm4snY2gZbB9pSgAAAAAAAAAAAAAAAAAAAAAAAAmpztSo3hE/60oUoAAAAAMN6ib4R+y26/CJv0XFKCZke1Ku+EU71p0pgAAAAAAfh//G7/AApPcHnZlbHhUp6TSkAJqwvy3M+LVP8AvxylAAAAAAAANeOkRYL2wXthxFRUYrm4oi4dHRimP+MUPiFucC7KRwoRJ6UuOc+2Kc2Vn4k1EhNVsw6M+OkZqsRUVEc2Hh+JcNJevow+7gAAAAAAAAAAAAAAAAAAAAAAAAAAAAAAAAAAAAAAAAAAAAAAAAAAAAAAAAAAmpztSo3hE/60oUoAAAAAMN6ib4R+y26/CJv0XFKCZke1Ku+EU71p0pgAAAAAAfh//G7/AApPcHnZlbHhUp6TSkAJqw/y5M+K1L+/HKUAAAAAAAAEzTu02veHSH/5zRTAAAAAAAAAAAAAAAAAAAAAAAAAAAAAAAAAAAAAAAAAAAAAAAAAAAAAAAAAAAmpztSo3hE/60oUoAAAAAMN6ib4R+y26/CJv0XFKCZke1Ku+EU71p0pgAAAAAAfh6f6TkT9CBs66pGk2RQ6bOyNdgzUlT5eXjQ0oc47QeyG1rkxbCVFwVPoqodvX2j92rmRT3xDX2j92rmRT3xDX2j92rmRT3xE9Zl50yWokwx8CsY/adRf/p0WcemDpyM5OlsJUxwXpTrRehcFRUKHX2j92rmRT3xDX2j92rmRT3xDX2j92rmRT3xDX2j92rmRT3xDX2j92rmRT3xDX2j92rmRT3xDX2j92rmRT3xDX2j92rmRT3xDX2j92rmRT3xDX2j92rmRT3xDX2j92rmRT3xDX2j92rmRT3xDX2j92rmRT3xDX2j92rmRT3xDX2j92rmRT3xDX2j92rmRT3xDX2j92rmRT3xDX2j92rmRT3xE9T70pacIdZmFl6xoPp8k1ESizelij5hVxbxWkidKYKqIi/THBcKHX2j92rmRT3xDX2j92rmRT3xDX2j92rmRT3xDX2j92rmRT3xDX2j92rmRT3xDX2j92rmRT3xDX2j92rmRT3xDX2j92rmRT3xDX2j92rmRT3xDX2j92rmRT3xDX2j92rmRT3xDX2j92rmRT3xDX2j92rmRT3xDX2j92rmRT3xDX2j92rmRT3xDX2j92rmRT3xDX2j92rmRT3xDX2j92rmRT3xDX2j92rmRT3xDX2j92rmRT3xDX2j92rmRT3xDX2j92rmRT3xDX2j92rmRT3xDX2j92rmRT3xDX2j92rmRT3xDX2j92rmRT3xDX2j92rmRT3xDX2j92rmRT3xDX2j92rmRT3xDX2j92rmRT3xDX2j92rmRT3xDX2j92rmRT3xDX2j92rmRT3xDX2j92rmRT3xDX2j92rmRT3xDX2j92rmRT3xDX2j92rmRT3xDX2j92rmRT3xDX2j92rmRT3xDX2j92rmRT3xDX2j92rmRT3xDX2j92rmRT3xDX2j92rmRT3xDX2j92rmRT3xDX2j92rmRT3xDX2j92rmRT3xDX2j92rmRT3xDX2j92rmRT3xDX2j92rmRT3xDX2j92rmRT3xDX2j92rmRT3xDX2j92rmRT3xDX2j92rmRT3xDX2j92rmRT3xDX2j92rmRT3xDX2j92rmRT3xDX2j92rmRT3xDX2j92rmRT3xDX2j92rmRT3xDX2j92rmRT3xDX2j92rmRT3xDX2j92rmRT3xDX2j92rmRT3xDX2j92rmRT3xDX2j92rmRT3xDX2j92rmRT3xDX2j92rmRT3xDX2j92rmRT3xDX2j92rmRT3xDX2j92rmRT3xDX2j92rmRT3xDX2j92rmRT3xDX2j92rmRT3xDX2j92rmRT3xDX2j92rmRT3xDX2j92rmRT3xDX2j92rmRT3xDX2j92rmRT3xDX2j92rmRT3xDX2j92rmRT3xDX2j92rmRT3xDX2j92rmRT3xDX2j92rmRT3xDX2j92rmRT3xDX2j92rmRT3xDX2j92rmRT3xDX2j92rmRT3xDX2j92rmRT3xDX2j92rmRT3xDX2j92rmRT3xDX2j92rmRT3xDX2j92rmRT3xDX2j92rmRT3xDX2j92rmRT3xDX2j92rmRT3xDX2j92rmRT3xDX2j92rmRT3xDX2j92rmRT3xDX2j92rmRT3xDX2j92rmRT3xDX2j92rmRT3xDX2j92rmRT3xDX2j92rmRT3xDX2j92rmRT3xDX2j92rmRT3xDX2j92rmRT3xDX2j92rmRT3xDX2j92rmRT3xDX2j92rmRT3xDX2j92rmRT3xDX2j92rmRT3xDX2j92rmRT3xDX2j92rmRT3xDX2j92rmRT3xDX2j92rmRT3xDX2j92rmRT3xDX2j92rmRT3xDX2j92rmRT3xGjJ1OFXeEOnzclK1BkvKUybhRIk1IR5VqOfFllY1FiMbiqpDf1Y9RaAAAAAAw3qJvhH7Lbr8Im/RcUoJmR7Uq74RTvWnSmAAAAAAAAAJqwvy5M+L1P+/HKUAAAAAAAAEzTu02veHSH/5zRTAAAAAAAAAAAAAAAAAAAAAAAAAAAAAAAAAAAAAAAAAAAAAAAAAAAAAAAAAAAAAAAAAGG9RN8I/ZbdfhE36LilBMyPalXfCKd606UwAJC3e0m8v/APS9JSXjU+kzllXDcFSSAlxScabTlz//ADEpFY9Ugw4b/wATEw4vBjVRHafUukuO9KUyn3HddVZeEnLTMeTk5Z0CBNMRWwIboeMSIxF6GqsRHor0wVNBEx6ELS34ktFt6QfJzseellgs4mZjuXTjNw6HOVUTFVTpxw6es6oAAPw//jd/hT57ZFi2lOcH1uzc3bNImI8xTZaJFixJKG5z3LDarnOVW4qqqvSqlBzc2VshQ8vhe0c3NlbIUPL4XtHNzZWyFDy+F7Sdsuw7RmaJMRI9rUeM5KnUIaK+ShuVGsnYzWtxVvUjWoiJ9EREKLm5srZCh5fC9o5ubK2QoeXwvaObmytkKHl8L2jm5srZCh5fC9o5ubK2QoeXwvaObmytkKHl8L2jm5srZCh5fC9o5ubK2QoeXwvaObmytkKHl8L2jm5srZCh5fC9o5ubK2QoeXwvaObmytkKHl8L2jm5srZCh5fC9o5ubK2QoeXwvaObmytkKHl8L2jm5srZCh5fC9o5ubK2QoeXwvaObmytkKHl8L2nQpFvUag8Y2kUmTpqRcOMSVgNhI/Dqx0UTHA6oAAAAAAAAAAAAAAAAAAAAAAAAAAAAAAAAAAAAAAAAAAAAAAAAAAAAAAAAAAAAAAAABhvUTfCP2W3X4RN+i4pQTMj2pV3winetOlMADh1C0Lcqk+s/ULfpU5OdH+vHk4cSJ0dX3nNVej6HvFt+izVXh1WPSJGNUYKIkKbfLtWKxE6tF6ppJ1/RRVLdolddBWrUeQqPEY8VyqXZG4vHDHR0kXDHBOr9DqIiImCdGBkAAH4f/xu/wAKT3B52ZWx4VKek0pACTh2fOSbo7afdlWkYMaPGmEgQ4Uq5rHRYixHYK+C52Gk5etVPfVis7c1zyJHdxqxWdua55Eju41YrO3Nc8iR3casVnbmueRI7uNWKztzXPIkd3GrFZ25rnkSO7jVis7c1zyJHdxqxWdua55Eju41YrO3Nc8iR3casVnbmueRI7uNWKztzXPIkd3GrFZ25rnkSO7jVis7c1zyJHdxqxWdua55Eju41YrO3Nc8iR3casVnbmueRI7uNWKztzXPIkd3GrFZ25rnkSO7jVis7c1zyJHdxqxWdua55Eju41YrO3Nc8iR3casVnbmueRI7uNWKztzXPIkd3GrFZ25rnkSO7jVis7c1zyJHdxqxWdua55Eju41YrO3Nc8iR3casVnbmueRI7uNWKztzXPIkd3GrFZ25rnkSO7jVis7c1zyJHdxqxWdua55Eju41YrO3Nc8iR3casVnbmueRI7uNWKztzXPIkd3GrFZ25rnkSO7jVis7c1zyJHdxqxWdua55Eju41YrO3Nc8iR3casVnbmueRI7uc+NArFAuG3WPuaoVKBUJ18rGgTUGWRuiktHioqLDhMcio6En1ww+hagAAAAAAAAAAAAAAAAAAAAAAAAAAAAAAAAAAAAAAAAAAAAAAAAAAAAAGG9RN8I/ZbdfhE36LilBMyPalXfCKd606UxyLhq62/a1UrCQOPSnSkWa4rS0dPQYr9HHBcMcMMcOj9DR5be+z1v51G3UctvfZ6386jbqOW3vs9b+dRt1HLb32et/Oo26jlt77PW/nUbdRy299nrfzqNuo5be+z1v51G3UctvfZ6386jbqOW3vs9b+dRt1HLb32et/Oo26jlt77PW/nUbdRy299nrfzqNuphZy9lbhq9QOr/1qNupzLel72oNsUuj/YtAj/Z8rCleN+2IzdPQYjcdHky4Y4dWKnU5be+z1v51G3UctvfZ6386jbqOW3vs9b+dRt1HLb32et/Oo26jlt77PW/nUbdRy299nrfzqNuo5be+z1v51G3UctvfZ6386jbqOW3vs9b+dRt1HLb32et/Oo26jlt77PW/nUbdRy299nrfzqNupzaPcN3VaUfNS1u0VjWTMeVVIlZioulCiuhP6pVehXMXD+MOrqOly299nrfzqNuo5be+z1v51G3UctvfZ6386jbqOW3vs9b+dRt1HLb32et/Oo26jlt77PW/nUbdRy299nrfzqNuo5be+z1v51G3UctvfZ6386jbqOW3vs9b+dRt1HLb32et/Oo26jlt77PW/nUbdRy299nrfzqNuo5be+z1v51G3UctvfZ6386jbqOW3vs9b+dRt1HLb32et/Oo26jlt77PW/nUbdRy299nrfzqNuo5be+z1v51G3UctvfZ6386jbqOW3vs9b+dRt1HLb32et/Oo26jlt77PW/nUbdRy299nrfzqNuootdqs5Xp+k1amyclHk5aXmUWVm3TDXtiuitRPvQ4aoqLB/RespQACZuf8x2d4vE/oTZTAAAAAAAAAAAAAAAAAAAAAAAAAAAAAAAAAAAAAAAAAAAAAAAAAAAAAAGG9RN8I/ZbdfhE36LilBMyPalXfCKd606UxNcI/ZbdfhE36LilAAAAAAAAAAAABNWF+XZrxep/345SgAAAAAAAAAAAEzI9qVd8Ip3rTpTAAEzc/wCY7O8Xif0JspgAAAAAAAAAAAAAAAAAAAAAAAAAAAAAAAAAAAAAAAAAAAAAAAAAAAAADDeom+Efstuvwib9FxSgmZHtSrvhFO9adKYmuEfstuvwib9FxSgAAAAAAAAAAAAmrC/Ls14vU/78cpQAAAAAAAAAAACZke1Ku+EU71p0pgACZuf8x2d4vE/oTZTAAAAAAAAAAAAAAAAAAAAAAAAAAAAAAAAAAAAAAAAAAAAAAAAAAAAAAGG9RN8I/ZbdfhE36LilBMyPalXfCKd606UxNcI/ZbdfhE36LilAAAABNcIfZpcvhsx6akqtGpVBrdsQ7fkJanTVQgRmTUKThNhJGgpAV2k9rURHYROLwcvSirhj0qeFJjQncHvBrCbEasR01KtRidK4shP006P24dP6YE5Sosag2nQadHiPfT6vUpWZknr08XGSaasWFjh0Iqffb0//AFE+iHtSYzpOBVLba7RS656YWEidfRMRGTKp+mEFrF/yfTODdqQ+DO3Wt6ESRhIn/wC1CnAAAABNWF+XZrxep/345SgAAAAl+ErsuuTw6N/+Cmldz/8A9P0iBMxeJps1OS8Gec1ytTilRfuuci9DXP4ti/qjsF6FODcEDVedrkpZ8GHIolCjTMaVkWIxsCMiokKI2GmDWvVvGdSYu0Exx0UO5RKLaNIn6LMUZ8KUmZ2CvFckwxqEPQRVdGVEVYmHQ7TcuKOd+L7yotuAAAAATMj2pV3winetOlMAATNz/mOzvF4n9CbKYAAAAAAAAAAAAAAAAAAAAAAAAAAAAAAAAAAAAAAAAAAAAAAAAAAAAAAw3qJvhH7Lbr8Im/RcUoJmR7Uq74RTvWnSmJrhH7Lbr8Im/RcUoAAAAOZVqZ9rUaYkHTESXbHboOiMhwnro49KaMRj2qip0Kjmr0fyTFI4M4FCfFfSLgn6a6MiJEWUp9Ng6aJ1IujKpjgJbg2hyVViVSUuGflp+Njxs1CkKcyK/HpXSekrpLiqYrip76hRllYEprTVeTS7mxIULkdO0Ybmri1Wt5LgiovSip1KIdhRYUaC+HdFVY+XV6wnpJ09Fhq9cXq1eS9Gl9cOv6nfo9MSk0eXp7I747YCaDXvZChu0cehNGExjEREwRNFqdCJ9ek6gAAAAJqwvy7NeL1P+/HKUAAAAHLrVKSuUeNTnTT5aHHTQesOFCiYt+rVbFY9ioqdCorVJWn8FkpS4MzCkK1NyUOaZxcZkCm02G2K3p+65GyqYp09SmzS+D1aHLul6Tc9Tp0F7tN0OVkqdCaq4ImODZVEx6EP3QOD6Wt2rPqElVZhHxF/1mMkpGCkf64PdCl2OXp6fxJ0lkAAAAATMj2pV3winetOlMAATNz/AJjs7xeJ/QmymAAAAAAAAAAAAAAAAAAAAAAAAAAAAAAAAAAAAAAAAAAAAAAAAAAAAAAMN6ib4R+y26/CJv0XFKCZke1Ku+EU71p0pia4R+y26/CJv0XFKAAAAcmBGq63FNQY8nAZSmQmLLx2vxiPev4mq36In0UQI1XW4pqDHk4DKUyExZeO1+MR71/E1W/RE+iiBGq63FNQY8nAZSmQmLLx2vxiPev4mq36In0UQI1XW4pqDHk4DKUyExZeO1+MR71/E1W/RE+iiBGq63FNQY8nAZSmQmLLx2vxiPev4mq36In0UQI1XW4pqDHk4DKUyExZeO1+MR71/E1W/RE+iiBGq63FNQY8nAZSmQmLLx2vxiPev4mq36In0UQI1XW4pqDHk4DKUyExZeO1+MR71/E1W/RE+inWAAAAJqwvy7NeL1P+/HKUAAAAAAAAAAAAmZHtSrvhFO9adKYAAmbn/MdneLxP6E2UwAAAAAAAAAAAAAAAAAAAAAAAAAAAAAAAAAAAAAAAAAAAAAAAAAAAAABhvUTfCP2W3X4RN+i4pQTMj2pV3winetOlMTd+S0ea4OrklZWE+PHjUyZhwocNiuc9ywnIjWonSqqvQiIY18pHc7gyCf8AhGvlI7ncGQT/AMI18pHc7gyCf+Ea+UjudwZBP/CNfKR3O4Mgn/hGvlI7ncGQT/wjXykdzuDIJ/4Rr5SO53BkE/8ACNfKR3O4Mgn/AIRr5SO53BkE/wDCNfKR3O4Mgn/hGvlI7ncGQT/wjXykdzuDIJ/4Rr5SO53BkE/8I18pHc7gyCf+Ea+UjudwZBP/AAjXykdzuDIJ/wCEa+UjudwZBP8AwjXykdzuDIJ/4Rr5SO53BkE/8I18pHc7gyCf+Ea+UjudwZBP/CNfKR3O4Mgn/hGvlI7ncGQT/wAI18pHc7gyCf8AhGvlI7ncGQT/AMJwrUuuTplGjwJun16HEfUJ6MifYU6v3Ik3FiQ16IS9bHIuH06lwXoO7r5SO53BkE/8I18pHc7gyCf+Ea+UjudwZBP/AAjXykdzuDIJ/wCEa+UjudwZBP8AwjXykdzuDIJ/4Rr5SO53BkE/8I18pHc7gyCf+Ea+UjudwZBP/CNfKR3O4Mgn/hGvlI7ncGQT/wAI18pHc7gyCf8AhGvlI7ncGQT/AMI18pHc7gyCf+Ea+UjudwZBP/CNfKR3O4Mgn/hGvlI7ncGQT/wjXykdzuDIJ/4Rr5SO53BkE/8ACNfKR3O4Mgn/AIRr5SO53BkE/wDCNfKR3O4Mgn/hGvlI7ncGQT/wjXykdzuDIJ/4Rr5SO53BkE/8Jp27O/a1+VuowJWoQpVafIy7Ik3IxpXTe2JNOcjUitaq4I9mKomH3kLEAAmbn/MdneLxP6E2UwAAAAAAAAAAAAAAAAAAAAAAAAAAAAAAAAAAAAAAAAAAAAAAAAAAAAABhvUTfCP2W3X4RN+i4pQTMj2pV3winetOlMAAAAAAAAAAAAAAAAAAAAAAAAAAAAACZuf8x2d4vE/oTZTAAAAAAAAAAAAAAAAAAAAAAAAAAAAAAAAAAAAAAAAAAAAAAAAAAAAAAGG9RN8I/ZbdfhE36LilBMyPalXfCKd606UwAAAAAAAAAAAAAAAAAAAAAAAAAAAAAJm5/wAx2d4vE/oTZTAAAAAAAAAAAAAAAAAAAAAAAAAAAAAAAAAAAAAAAAAAAAAAAAAAAAAAGG9RN8I/ZbdfhE36LilBMyPalXfCKd606UwAAAAAAAAAAAAAAAAAAAAAAAAAAAAAJm5/zHZ3i8T+hNlMAAAAAAAAAAAAAAAAAAAAAAAAAAAAAAAAAAAAAAAAAAAAAAAAAAAAAAYb1E3wj9lt1+ETfouKUEzI9qVd8Ip3rTpTAAAAAAAAAAAAAAAAAAAAAAAAAAAAAAm7lp1RnJiiztJhS0ePTZ5ZniZmM6Cx7Vl40JU0mseqKnGov4V6sOgx9oXrs5Q86i7qPtC9dnKHnUXdR9oXrs5Q86i7qPtC9dnKHnUXdR9oXrs5Q86i7qPtC9dnKHnUXdR9oXrs5Q86i7qPtC9dnKHnUXdR9oXrs5Q86i7qPtC9dnKHnUXdR9oXrs5Q86i7qPtC9dnKHnUXdR9oXrs5Q86i7qPtC9dnKHnUXdR9oXrs5Q86i7qPtC9dnKHnUXdR9oXrs5Q86i7qPtC9dnKHnUXdR9oXrs5Q86i7qPtC9dnKHnUXdR9oXrs5Q86i7qPtC9dnKHnUXdR9oXrs5Q86i7qPtC9dnKHnUXdR9oXrs5Q86i7qPtC9dnKHnUXdR9oXrs5Q86i7qPtC9dnKHnUXdR9oXrs5Q86i7qPtC9dnKHnUXdR9oXrs5Q86i7qPtC9dnKHnUXdR9oXrs5Q86i7qPtC9dnKHnUXdR9oXrs5Q86i7qPtC9dnKHnUXdR9oXrs5Q86i7qPtC9dnKHnUXdR9oXrs5Q86i7qPtC9dnKHnUXdR9oXrs5Q86i7qPtC9dnKHnUXdR9oXrs5Q86i7qPtC9dnKHnUXdR9oXrs5Q86i7qPtC9dnKHnUXdR9oXrs5Q86i7qPtC9dnKHnUXdR9oXrs5Q86i7qPtC9dnKHnUXdR9oXrs5Q86i7qPtC9dnKHnUXdR9oXrs5Q86i7qPtC9dnKHnUXdR9oXrs5Q86i7qPtC9dnKHnUXdR9oXrs5Q86i7qPtC9dnKHnUXdT8rUb0RMdXKH0J/61E3U6VvVRtctqmVZsJYST8rCmkhquKsR7Edo4/XDHA6oAAAAAAAAAAAAAAAAAAAAAAABhvUTfCP2W3X4RN+i4pQTMj2pV3winetOlMc2sVeSoNKj1KoxXQZSAiLEe2G6IqYqiJg1qK5elepEU4635b8OUm5iPGnJVklDbFismabMQH6Cu0UVrHsRzkxwT7qLguGJtU67aTUpmNLQoszLR5eFxzoc5JRpR3F9SvRIrGYtRetUxROjHAxS7wotXnmy0nMxUixWq6AsaViwWx2p1rCc9qJETDBcWK5MMF6gy9KG6rfZzZt/GpG5NxnJovJ+N/8Ap8fo8Xp49GjpY49GGPQe9Uuak0WJHh1Cb4l0vKvnnpxTnaMFiojndCLjgv0Tp/g86ddFOqkRyQYdRgshw1iviTdOmJRiMT66cVjW/wDbHHDp+h4SV8UKo6ayseZfhCWPDashHaseGnW6CisRYydX/Hpdafqh6Ua8aPcE9FlKf9oOiQVVkTjabMQWQ3IiKrXOexGo7BU+6q4/wUIAAAAAAAAAAAAAAAAAAAAAAAAAAAAAAAAAAAAAAAAAAAAAAAAAAAAAB+H/APG7/Ck9wedmVseFSnpNKQAAAAAAAAAAAAAAAAAAAAAAAAw3qJvhH7Lbr8Im/RcUoJmR7Uq74RTvWnSmJDhKkpmo8HtTlJKDFjTEVIaMbAZpv/5GLijcFxwRMepeo4l6WbNap1eOlQqtbqsWXhy0F8RkJXw4fHMc5GMgw2J1piqq1V+6n0Q8Kxa1afU6xITM9PVh8/SYkGmzkdjGtgL0LFgv4pjGIr1Rio53WjcP+ldLrTE5EuioUCWk6TUpJ9OmmzU0+ZlXwGy6NhuarGuciNiKqro/6aubh044YY6lAmYlKt2TtWbtycnahLzHFPR8m/kr04zT5Rx6tWHhh9/DS09LowxONcqVW52V2bZQ6hKxoVuzEjEgrLvXGO5+KMhOVicb0N/ExFTq/U6PJpmvWnV6LK1m4p2bmqe+FChVWkrJwUdhhgj0l4PX+HBXL0dOHQUFLrsOsz9Nl4dtz0F8BivixpySdAbJO0dHRY57UR7lX7v+mqphiuOGGP6s6VmJWcuRZiXiwmxqvEiwtNit02KxiIrcetMUXpT9CsAAAAAAAAAAAAAAAAAAAAAAAAAAAAAAAAAAAAAAAAAAAAAAAAAAAAAAPw//AI3f4UnuDzsytjwqU9JpSAAAAAAAAAAAAAAAAAAAAAAAAGG9RN8I/ZbdfhE36LilBMyPalXfCKd606UwAAAAAAAAAAAAAAAAAAAAAAAAAAAAAAAAAAAAAAAAAAAAAAAAAAAAAAAAAAB+H/8AG7/Ck9wedmVseFSnpNKQAAAAAAAAAAAAAAAAAAAAAAAAw3qJvhH7Lbr8Im/RcUoJmR7Uq74RTvWnSmAAAAAAAAAAAAAAAAAAAAAAAAAAAAAAAAAAAAAAAAAAAAAAAAAAAAAAAAAAAPw//jd/hSe4POzK2PCpT0mlIAAAAAAAAAAAAAAAAAAAAAAAAYb1E3wj9lt1+ETfouKUEzI9qVd8Ip3rTpTHIuGrrb9rVSsJA49KdKRZritLR09Biv0ccFwxwwxw6P0NHlt77PW/nUbdRy299nrfzqNuo5be+z1v51G3UctvfZ6386jbqOW3vs9b+dRt1HLb32et/Oo26jlt77PW/nUbdRy299nrfzqNuo5be+z1v51G3UctvfZ6386jbqOW3vs9b+dRt1HLb32et/Oo26jlt77PW/nUbdRy299nrfzqNuo5be+z1v51G3UctvfZ6386jbqOW3vs9b+dRt1HLb32et/Oo26jlt77PW/nUbdRy299nrfzqNuo5be+z1v51G3UctvfZ6386jbqOW3vs9b+dRt1HLb32et/Oo26jlt77PW/nUbdRy299nrfzqNupzaPcN3VaUfNS1u0VjWTMeVVIlZioulCiuhP6pVehXMXD+MOrqOly299nrfzqNuo5be+z1v51G3UctvfZ6386jbqOW3vs9b+dRt1HLb32et/Oo26jlt77PW/nUbdRy299nrfzqNuo5be+z1v51G3UctvfZ6386jbqOW3vs9b+dRt1HLb32et/Oo26jlt77PW/nUbdRy299nrfzqNuo5be+z1v51G3UctvfZ6386jbqOW3vs9b+dRt1HLb32et/Oo26jlt77PW/nUbdRy299nrfzqNuo5be+z1v51G3UctvfZ6386jbqOW3vs9b+dRt1HLb32et/Oo26jlt77PW/nUbdRy299nrfzqNupz4Nx3dFr01SGW5RePlZeDMPX7ai6GjEdFa1EXk2OKLBfj0fp/OHQ5be+z1v51G3UctvfZ6386jbqOW3vs9b+dRt1HLb32et/Oo26jlt77PW/nUbdRy299nrfzqNuo5be+z1v51G3UctvfZ6386jbqOW3vs9b+dRt1HLb32et/Oo26jlt77PW/nUbdRy299nrfzqNuo5be+z1v51G3UctvfZ6386jbqOW3vs9b+dRt1HLb32et/Oo26jlt77PW/nUbdRy299nrfzqNuo5be+z1v51G3UctvfZ6386jbqOW3vs9b+dRt1HLb32et/Oo26jlt77PW/nUbdRy299nrfzqNuo5be+z1v51G3U509cN30+dpktFtyirEqUystCcysxcGuSFEirpf7XoTRguTox6cP8p0eW3vs9b+dRt1HLb32et/Oo26jlt77PW/nUbdRy299nrfzqNuo5be+z1v51G3UctvfZ6386jbqOW3vs9b+dRt1HLb32et/Oo26jlt77PW/nUbdRy299nrfzqNuo5be+z1v51G3UctvfZ6386jbqOW3vs9b+dRt1HLb32et/Oo26jlt77PW/nUbdRy299nrfzqNuo5be+z1v51G3UctvfZ6386jbqOW3vs9b+dRt1HLb32et/Oo26jlt77PW/nUbdRy299nrfzqNuo5be+z1v51G3UctvfZ6386jbqOW3vs9b+dRt1OdWriu6g0GoVaZtuivl6fLRJmI2HWIukrGNVyo1FlkTHBOjpQ6PLb32et/Oo26jlt77PW/nUbdRy299nrfzqNuo5be+z1v51G3UctvfZ6386jbqOW3vs9b+dRt1HLb32et/Oo26jlt77PW/nUbdRy299nrfzqNuo5be+z1v51G3UctvfZ6386jbqOW3vs9b+dRt1MLOXsrcNXqB1f+tRt1OZb0ve1Btil0f7FoEf7PlYUrxv2xGbp6DEbjo8mXDHDqxU6nLb32et/Oo26jlt77PW/nUbdRy299nrfzqNuo5be+z1v51G3UctvfZ6386jbqOW3vs9b+dRt1HLb32et/Oo26jlt77PW/nUbdRy299nrfzqNuo5be+z1v51G3UctvfZ6386jbqOW3vs9b+dRt1Nm2KxHrlGWbmpSFKR2TMxKxIUOLxrUdBjPhLouVrVVFWHimLUO4AAAAAAAAAAAAAAAAADDeom+Efstuvwib9FxSgmZHtSrvhFO9adKYmuEfstuvwib9FxSgAAAAAAAAAAAAmrC/Ls14vU/78cpQAAAAAAAAAAACZke1Ku+EU71p0pgAAAAAAAAAAACZuf8AMdneLxP6E2UwAAAAAAAAAAABNcI/ZbdfhE36LilAAAAAAAAAAAABNWF+XZrxep/345SgAAAAAAAAAAAAAAAAAw3qJvhH7Lbr8Im/RcUoJmR7Uq74RTvWnSmJrhH7Lbr8Im/RcUoAAAAAAAAAAAAJqwvy7NeL1P8AvxylAAAAAAAAAAAAJmR7Uq74RTvWnSmAAAAAAAAAAAAJm5/zHZ3i8T+hNlMAAAAAAAAAAAATXCP2W3X4RN+i4pQAAAAAAAAAAAATVhfl2a8Xqf8AfjlKAAAAAAAAAAAAAAAAADDeom+Efstuvwib9FxSgmZHtSrvhFO9adKYmuEfstuvwib9FxSgAAAA492fkyuf/wBjH9NT5jTbQjy9nQqtCoNCoUKDQ43GRKc/SjzyPl8EbF/0oaImP31xV/3kT/JmkRY1Lqll2xNPiROKeszToj3Y8ZLrKREVirh+KG5dH/7dBf1N2kRIacGPB9A02rGdPSkNGM6VxYqq9Oj9EauP6YHApUV0vSaja+l9y6J2NFhNTHHQSNFbNf4Ti4SdP6vPqnB+mHBxbqJ0f/DYHptKMAAAAE1YX5dmvF6n/fjlKAAAAAfK67RFrXCxVmttmgVx0OlyuH2s/RSFi+N0s/0YmOP1/D1J1/TSl6dP2leK1PlUWdfRKPJS8+jUVePl1WKkRyN6V0mK1Hp9VRFT6lrwZxGRuDejxIbmvY+EqtVOrBXLgVgAAAABMyPalXfCKd606UwAAAAB8/tSLNwODWtxacmnOwpqpLLt0cfvpGiK1MPr04HO+zaHTKVa1Yt5ICVSempZqTbOmPPseqLGSI/8UT7mm9dLHBW49CohimU635ui1av197Zery1Sjw4tQ0USak1bFVsKHCdgrmpocWiMTFHI/qXSXH6i0yAAAACZuf8AMdneLxP6E2UwAAAAB8wg0y3qk266tcyw4c/T52JD5a/BI9OgsRFgrBcuKw/uqj00fxOcvQvUYnqTTKxTL/WoSUtUWy8RY0FZqA16sckhDwciOT7rv5REUyluyFF4MKZXqDT5OnVKlSTKij4EFsJI+EJqxmRFanSkRqYKq49KNd0q1CstOlJI0pJuZ0YlRqKpNTcdP+t6omDUx6dBqYNan0RqfUowAAAATXCP2W3X4RN+i4pQAAAATXCH2aXL4bMempKrRqVQa3bEO35CWp01UIEZk1Ck4TYSRoKQFdpPa1ER2ETi8HL0oq4Y9KnhSY0J3B7wawmxGrEdNSrUYnSuLIT9NOj9uHT+mBOUqLGoNp0GnR4j30+r1KVmZJ69PFxkmmrFhY4dCKn329P/ANRPoh7UmM6TgVS22u0UuuemFhInX0TERkyqfphBaxf8n0zg3akPgzt1rehEkYSJ/wDtQpwAAAATVhfl2a8Xqf8AfjlKAAAAAAAAAAAAAAAAADDeom+Efstuvwib9FxSgmZHtSrvhFO9adKYmuEfstuvwib9FxSgAAAA59SkFqNNmJLj3y/HsWGsSGxjlRF6/uva5q4p0YOaqYHD1OnuQ8j1yrXJeL4rieTU/Q0MMNHR5Nhhh0YdWB5rY0yr5V63bWFfJ/8Al3ckp+MHFuiuh/tfu/d6Oj6dBrQODaHKViLVZa4ahAqMXHjJqHIU1sZ+PXi9JXFccPqp6Q7AiQ4sF7LqqrXQdPilSUp6aCPXF+j/ALXo0l6Vw6/qUlKp6UmlS0g2M6MyAxIbHvZDYuCdSaMNrGJgnRg1qJgh0QAAAATVhfl2a8Xqf9+OUoAAAABpw5OWhzr5pkvCZMRWtY+KjERz2txVqKvWqJiuCfQykpLsmYky2BCSNEY1j4iMTFzUxwRV61RMVwQzJSctIScOVk5eFLQISaLIUFiMaxP0RqdCG0AAAAATMj2pV3winetOlMAAAAAcOWtC3JWr/asvb9Lgz+msTlMOUhti6S46S6aN0sVx6Vx6T2lbfosjVY1TlKRIy89Hx42ahS7GRYmK4rpPRMVxVE61MxrdokxV4dVjUaQi1KFhxc2+XYsduHVg9U0kw/ydUAAAAAmbn/MdneLxP6E2UwAAAAByZy3qJUKnBqM5RqfMz0vo8VMRpdj4sPBcU0XKmKYL1YL1m19nyn+5/wBrA/3f/mP9NP8AV+6jfv8AR977qYdP06DKyUqtO5EsvC5JxfFcRoJxehhho6PVo4dGHVge7IbYbEY1rWtRMEREwRE/RD0AAAABNcI/ZbdfhE36LilAAAABqzMtAm5SJLTMJkeBGarHw4jUVr2qmCoqL0Kip9DSpFtUKgujPpFFp9NdFREiLKSrIOmidSLoomOBiUtyiyVVjVOVo0hL1CNjxk1Cl2MivxXFdJ6JpLiqJjipsLSae6VgyfIJXk0s5sSFC4pujDc1cWq1uGCKi9KKnUpiHSKdCjQnw6dKsfAV6wntgtRYav6Xq1cOjSXrw6/qbMrKwJKVhy0tAZAgQkRrIcNqNaxE6kRE6EQ2AAAAATVhfl2a8Xqf9+OUoAAAAAAAAAAAAAAAAAMN6ib4R+y26/CJv0XFKCZke1Ku+EU71p0pia4R+y26/CJv0XFKAAAAAAAAAAAACasL8uzXi9T/AL8cpQAAAAAAAAAAACZke1Ku+EU71p0pgAAAAAAAAAAACZuf8x2d4vE/oTZTAAAAAAAAAAAAE1wj9lt1+ETfouKUAAAA5MCNV1uKagx5OAylMhMWXjtfjEe9fxNVv0RPoogRqutxTUGPJwGUpkJiy8dr8Yj3r+Jqt+iJ9FECNV1uKagx5OAylMhMWXjtfjEe9fxNVv0RPoogRqutxTUGPJwGUpkJiy8dr8Yj3r+Jqt+iJ9FECNV1uKagx5OAylMhMWXjtfjEe9fxNVv0RPoogRqutxTUGPJwGUpkJiy8dr8Yj3r+Jqt+iJ9FECNV1uKagx5OAylMhMWXjtfjEe9fxNVv0RPoogRqutxTUGPJwGUpkJiy8dr8Yj3r+Jqt+iJ9FOsAAAATVhfl2a8Xqf8AfjlKAAAAAAAAAAAAAAAAADDeom+Efstuvwib9FxSgmZHtSrvhFO9adKYm78lo81wdXJKysJ8ePGpkzDhQ4bFc57lhORGtROlVVehEQxr5SO53BkE/wDCNfKR3O4Mgn/hGvlI7ncGQT/wjXykdzuDIJ/4Rr5SO53BkE/8I18pHc7gyCf+Ea+UjudwZBP/AAjXykdzuDIJ/wCEa+UjudwZBP8AwjXykdzuDIJ/4Rr5SO53BkE/8I18pHc7gyCf+Ea+UjudwZBP/CNfKR3O4Mgn/hGvlI7ncGQT/wAI18pHc7gyCf8AhGvlI7ncGQT/AMI18pHc7gyCf+Ea+UjudwZBP/CNfKR3O4Mgn/hGvlI7ncGQT/wnGuXhZoVtUCPUpiVrH+kmDGRqRNS7Yj1/C3TiQ0a3H+VN2n8JNBqlNgTspCrUaXjtR8N8OiTkRrkX9HNhK1f06FVDc18pHc7gyCf+Ea+UjudwZBP/AAjXykdzuDIJ/wCE4VqXXJ0yjR4E3T69DiPqE9GRPsKdX7kSbixIa9EJetjkXD6dS4L0Hd18pHc7gyCf+Ea+UjudwZBP/CNfKR3O4Mgn/hGvlI7ncGQT/wAI18pHc7gyCf8AhGvlI7ncGQT/AMI18pHc7gyCf+Ea+UjudwZBP/CNfKR3O4Mgn/hGvlI7ncGQT/wjXykdzuDIJ/4Rr5SO53BkE/8ACNfKR3O4Mgn/AIRr5SO53BkE/wDCNfKR3O4Mgn/hGvlI7ncGQT/wjXykdzuDIJ/4Rr5SO53BkE/8I18pHc7gyCf+Ea+UjudwZBP/AAjXykdzuDIJ/wCEa+UjudwZBP8AwjXykdzuDIJ/4Rr5SO53BkE/8I18pHc7gyCf+E4UrdcpCv2qVF1Pr6SkenycvDf9hTv3nsiTLnJhxWKYJFZ0qmC49HUuHd18pHc7gyCf+Ea+UjudwZBP/CNfKR3O4Mgn/hGvlI7ncGQT/wAI18pHc7gyCf8AhGvlI7ncGQT/AMI18pHc7gyCf+Ea+UjudwZBP/CNfKR3O4Mgn/hGvlI7ncGQT/wjXykdzuDIJ/4Rr5SO53BkE/8ACNfKR3O4Mgn/AIRr5SO53BkE/wDCNfKR3O4Mgn/hGvlI7ncGQT/wjXykdzuDIJ/4Rr5SO53BkE/8I18pHc7gyCf+Ea+UjudwZBP/AAjXykdzuDIJ/wCEa+UjudwZBP8AwjXykdzuDIJ/4Rr5SO53BkE/8I18pHc7gyCf+E4NcuqTnKxbUaBTq86HI1B0eYX7CnE0WLKx4aL0wun772JgmK/XqTE72vlI7ncGQT/wjXykdzuDIJ/4Rr5SO53BkE/8I18pHc7gyCf+Ea+UjudwZBP/AAjXykdzuDIJ/wCEa+UjudwZBP8AwjXykdzuDIJ/4Rr5SO53BkE/8I18pHc7gyCf+Ea+UjudwZBP/CNfKR3O4Mgn/hGvlI7ncGQT/wAI18pHc7gyCf8AhGvlI7ncGQT/AMI18pHc7gyCf+Ea+UjudwZBP/CNfKR3O4Mgn/hGvlI7ncGQT/wjXykdzuDIJ/4Rr5SO53BkE/8ACNfKR3O4Mgn/AIRr5SO53BkE/wDCNfKR3O4Mgn/hGvlI7ncGQT/wnBvW6ZSr2FX6dJU6vRZubp8xLwYf2FPN03uhua1MVhIiYqqda4He18pHc7gyCf8AhGvlI7ncGQT/AMI18pHc7gyCf+Ea+UjudwZBP/CNfKR3O4Mgn/hGvlI7ncGQT/wjXykdzuDIJ/4Rr5SO53BkE/8ACNfKR3O4Mgn/AIRr5SO53BkE/wDCNfKR3O4Mgn/hGvlI7ncGQT/wjXykdzuDIJ/4Rr5SO53BkE/8I18pHc7gyCf+Ea+UjudwZBP/AAjXykdzuDIJ/wCEa+UjudwZBP8AwjXykdzuDIJ/4Rr5SO53BkE/8I18pHc7gyCf+Ea+UjudwZBP/CNfKR3O4Mgn/hGvlI7ncGQT/wAI18pHc7gyCf8AhGvlI7ncGQT/AMJ52E2Jqy+I+Xjy/HVCfjMZHgugv0HzkZ7FVj0RzcWqi4KiLhgVIAAAAAAAAAAAAAAAAAMN6ib4R+y26/CJv0XFKCZke1Ku+EU71p0pgAAAAAAAAAAD5dw22VrVaE1OzdSiwJOjSUzOMlILE/1o7YaqxznLj91MMMEbiul1oUdhWVqFQ41FgVOLP05kZ0WUZHYiPgMXBVZpIuDk0sXY4N6XFcAAAAAAAAAAAAAAAAAAAAAAAAAAAAAAAAAAAAAAAAAAAAAAAAAAAAAAAAAAAAAAAAAAAAAAAAYb1E3wj9lt1+ETfouKUEzI9qVd8Ip3rTpTAAAAAAAAAAAE1wjdlt1eETfouKUAAAAAAAAAAAAAAAAAAAAAAAAAAAAAAAAAAAAAAAAAAAAAAAAAAAAAAAAAAAAAAAAAAAAAAAAGG9RN8I/ZbdfhE36LilBMyPalXfCKd606UwAAAAAAAAAABNcI3ZbdXhE36LilAAAAAAAAAAAAAAAAAAAAAAAAAAAAAAAAAAAAAAAAAAAAAAAAAAAAAAAAAAAAAAAAAAAAAAAABhvUTfCP2W3X4RN+i4pQTMj2pV3winetOlMARdz12et+rPVsTjJePTIz5aDoJ/5pit0URcMVVyRETBV/6P5U40rdVZk5SXhVCadHm6NBno9U4tjG8pSAiIxOr7mlxjH/AHcOrDq6DoOmq/RZWkVmdrMSoMnZiBBmpPk8JsCGkZyNRYStaj00HKn43PxTH64KkzQruq87EpehXq1NVWcqD4XII1LZDk3wWRlbEVsbiG/ghJpYpEVdJETBccDo0686pWLoqFqwZ+JJTLKlMsSefLtRIcCHoKkKFpN0XxVRcelHaLcVVF6EPqDUwaideCH6AAAAAABNcI3ZbdfhE36LilAAAAAAAAAAAAAAAAAAAAAAAAAAAAAAAAAAAAAAAAAAAAAAAAAAAAAAAAAAAAAAAAAAAAAAAABhvUTfCP2W3X4RN+i4pQTMj2pV3winetOlMAcatW9J15ZDlem3kMyyah8W5OlzeprsUXFq/VP4QxL25JQKvUqj96JFqTGQ4zH4KzBrdHoTDHpTrxVccENCSsmXk5mU4yqVGdkqe5HSUjMPYsGXVOhqoqMR79FOhOMc/Dr60RUwlj05luy1JZGmmJJzXK5aYRzeOhxNNX4tXRw+qtww6W9CmY1jU2JT52VbHmob5qfWotmIbmpFl4+KLpQ10cEwwwwVFxTFFxToKWGioxEVzl6OtcP/AOOg9AAAAAAATPCImPBhdDU+tJmk+mH/AAuKYAAAAAAAAAAAAAAAAAAAAAAAAAAAAAAAAAAAAAAAAAAAAAAAAAAAAAAAAAAAAAAAAAAAAAAAAGG9RN8I/ZbdfhE36LilBMyPalXfCKd606Uxo1Koy1JpczUpyLxUpKQnR4z9FV0GMRXOXBEVVwROpExORr5SO53BkE/8I18pHc7gyCf+Ea+UjudwZBP/AAjXykdzuDIJ/wCEa+UjudwZBP8AwjXykdzuDIJ/4Rr5SO53BkE/8I18pHc7gyCf+Ea+UjudwZBP/CNfKR3O4Mgn/hGvlI7ncGQT/wAI18pHc7gyCf8AhGvlI7ncGQT/AMI18pHc7gyCf+E8JjhBocnKxpmYhVqBLwWOiRIsShTzWw2omKqqrBwRERMVVT318pHc7gyCf+Ea+UjudwZBP/CNfKR3O4Mgn/hGvlI7ncGQT/wjXykdzuDIJ/4Rr5SO53BkE/8ACcG9bplKvYVfp0lTq9Fm5unzEvBh/YU83Te6G5rUxWEiJiqp1rgd7XykdzuDIJ/4Rr5SO53BkE/8I18pHc7gyCf+Ea+UjudwZBP/AAjXykdzuDIJ/wCEa+UjudwZBP8AwjXykdzuDIJ/4TwmOEGhycrGmZiFWoEvBY6JEixKFPNbDaiYqqqsHBERExVVKwAAAAAAAAAAAAAAAAAAAAAAAAAAAAAAAAAAAAAAAAAAAAAAAAAAAAAAAAAAAAAAAAAAAAGG9RN8I/ZbdfhE36LilBMyPalXfCKd606UxNcI/ZbdfhE36LilAAAAAABNcI/ZbdfhE36LilAAAAAABNcI/ZbdfhE36LhzcWTsbQMtg+0c3Fk7G0DLYPtHNxZOxtAy2D7RzcWTsbQMtg+0c3Fk7G0DLYPtHNxZOxtAy2D7RzcWTsbQMtg+0c3Fk7G0DLYPtHNxZOxtAy2D7RzcWTsbQMtg+0c3Fk7G0DLYPtHNxZOxtAy2D7RzcWTsbQMtg+0c3Fk7G0DLYPtHNxZOxtAy2D7RzcWTsbQMtg+0c3Fk7G0DLYPtHNxZOxtAy2D7TjVC1beod12jNUmgUynTD6nEhrElZRkFysWRmVVqq1qLhiidH8IXwAAAAAAAAAAAAAAAAAAAAAAAAAAAAAAAAAAAAAAAAAAAAAAAAAAAAAAAAAABhvUTfCP2W3X4RN+i4pQTMj2pV3winetOlMTXCP2W3X4RN+i4pQAAAAAATXCP2W3X4RN+i4pQAAAAAATXCP2W3X4RN+i4pQAAAAAAAATNz/mOzvF4n9CbKYAAAAAAAAAAAAAAAAAAAAAAAAAAAAAAAAAAAAAAAAAAAAAAAAAAAAAAAAAAAw3qJvhH7Lbr8Im/RcUoJmR7Uq74RTvWnSmJrhH7Lbr8Im/RcUoAAOTIXFRapPRpCn1iRm5uWx42BAmGRIkPBcF0moqqmC9HT9T8ydyUSoz0xJSVZkJqalceOgQZhjnwsFwXSai4twXoXE94NXp0aUlpqDPysWXm1RsCKyK1WRVXqRrk6FVcPodEAAmuEfstuvwib9FxSgAHCqF421SJ3kVRuGlSM0iIvETE5DhPRF6vuuci9JvQ5+TizUeXhzcB8eWRr40NHtV0Jrkxark62oqJimPXgJapSE49IcrOy0dywmx0SHFa5Vhr+F2CL+FcOhepcD8Qq1TI0eWgQ6lJvjTSPWDDbGaqxkZ0PViY4uRq9C4dX1PSBUZOYnZmSgTkCJMyujx0FkVqxIOKYt02p0txTpTHrN4AE1wj9lt1+ETfouKUAAAAAAAAEzc/5js7xeJ/QmymAAAAAAAAAAAAAAAAAAAAAAAAAAAAAAAAAAAAAAAAAAAAAAAAAAAAAAAAAAAMN6ib4R+y26/CJv0XFKCTnqfcEld05V6RJ02bgzcjLyrmTU4+XWGsJ8Z2KaMKIioqRv4ww+p78svf/wBCoGbxt1J2+5q7n8HNxtmqNRYUv9mTKRXw6pFc5GcU7FWtWWRFXDqTFMf1Q+jgAGtNJ/s4ycW+KnFr9xnWvR1J0p0r/k+S0KPTYc9b9HkalLXHLyLIzIEpDhcTUqZD4pUVIysejejohK17GYucmKq5OnFDj06FN0CkSFUk6/AkWRkl5dICwqhSmcS5FWOrH6OCdEJWvYzFXJiquTp0qFLxqBSrEpzIT30uqTMpNwHo1VbAjcU5YzFXHoR342/zxn8H3EAAmuEfstuvwib9FxSgAHzVKdWanf8AeUtTKlJSMCLDlIcXj5F0w5UWCqfcVIrEb0fq13/8HIfSX25X6/VqVDjx/saDKykaCn3nzEpydqL0dGL2YI9Oj6KidZ+7PrFNtyapFRrM/L02TnLYkYcvHmXpCY9zFcr2o52CK5Eci6OOOH0ORoxqfCtytxIUWWiUinzNT0HwlR6QVmmLERW9aKsGIvR1lXwbQomtNYn5iHxczVJGVn4qL1osR8dzWr/9rNBv/wDifSgATXCP2W3X4RN+i4pQAAD59eEvPx77kPs6qRKXFh0edfx0JjHu6HwVRMHtc3DHDHoxw6lQ4c7eddi0uZqsKqskX0ykSVSSUSCxWTj42Kua/SRXo1VboN0FaqK7rXoQ6bbwqD1kYSzzUjRq7OSb2aDMeKhMiuazDDowwhrj19WK9JzoNXueHadGn41wzsfj6atSnHykGS42Fi1io50J7W4wGppY6GL1XoRerD6pAiJGl2xEXFHIip91W9f8L0oe4AAJm5/zHZ3i8T+hNlMAAAAAAAAAAAAAAAAAAAAAAAAAAAAAAAAAAAAAAAAAAAAAAAAAAAAAAAAAAAYb1E3wj9lt1+ETfouKUAE1wj9lt1+ETfouKUA14sxAgPhsixWQ3RV0YaOciK9f0RF61EWYgQHw2RYrIboq6MNHORFev6Ii9anjPtlY0u6UmY7oKTKcWmhHdBe5f0Y5qo5F/wDtXE4USzaFAfDZFqNaY+KuDGrcM8ivX9ERY3SIlm0KA+GyLUa0x8VcGNW4Z5Fev6Iixuk/WqNEkpqAr6jWGRHPTi2xa/OKjlTpw0XRsHf4wUoYsxAgPhsixWQ3RV0YaOciK9f0RF61EWYgQHw2RYrIboq6MNHORFev6Ii9aiLMQID4bIsVkN0VdGGjnIivX9ERetTYBNcI/ZbdfhE36LilANeLMQID4bIsVkN0VdGGjnIivX9ERetRFmIEB8NkWKyG6KujDRzkRXr+iIvWpwZ+16PGneNm5+qwYs0/7rIdbm4LXO68GMbFRqf4ah5RLNoUB8NkWo1pj4q4MatwzyK9f0RFjdIiWbQoD4bItRrTHxVwY1bhnkV6/oiLG6REs2hQHw2RajWmPirgxq3DPIr1/REWN0m9T6LTKBNI+HOT3GzH+mxk5VZiYRy9eDWxXuTH/CYnVizECA+GyLFZDdFXRho5yIr1/REXrURZiBAfDZFishuirow0c5EV6/oiL1qbAJrhH7Lbr8Im/RcUoAABO1m3I1VqEOcg1qepz2QVgYQIEq9NFVxd0xYL3dODcURUauinRiciLwbw40SSiRrhqESJT0RJR75GnKsvhhgkNVlfudSdWHUhjm1h/akSppcNQ5dEwV81yCnca7Buiiq7kuK/d6Ovq6BMcGcGdgScKar89HhyOHJWxafTnJAwww0EWV+71J1YdSFhLwYkCWhQ4keJMOhsaxYkTRRz1RMFc5GojcV61wRE/RENoAAEzc/5js7xeJ/QmymAAAAAAAAAAAAAAAAAAAAAAAAAAAAAAAAAAAAAAAAAAAAAAAAAAAAAAAAAAAMN6ib4R+y26/CJv0XFKACa4R+y26/CJv0XFKAc6do1PqM1JTM5Kwo0eQicbLPenTDdhhin84Cdo1PqM1JTM5Kwo0eQicbLPenTDdhhin84Cdo1PqM1JTM5Kwo0eQicbLPenTDdhhin84Cdo1PqM1JTM5Kwo0eQicbLPenTDdhhin84Cdo1PqM1JTM5Kwo0eQicbLPenTDdhhin84Cdo1PqM1JTM5Kwo0eQicbLPenTDdhhin84Cdo1PqM1JTM5Kwo0eQicbLPenTDdhhin84Cdo1PqM1JTM5Kwo0eQicbLPenTDdhhin84Cdo1PqM1JTM5Kwo0eQicbLPenTDdhhin84HRBNcI/ZbdfhE36LilAOdO0an1GakpmclYUaPIRONlnvTphuwwxT+cBO0an1GakpmclYUaPIRONlnvTphuwwxT+cBO0an1GakpmclYUaPIRONlnvTphuwwxT+cBO0an1GakpmclYUaPIRONlnvTphuwwxT+cBO0an1GakpmclYUaPIRONlnvTphuwwxT+cBO0an1GakpmclYUaPIRONlnvTphuwwxT+cBO0an1GakpmclYUaPIRONlnvTphuwwxT+cBO0an1GakpmclYUaPIRONlnvTphuwwxT+cBO0an1GakpmclYUaPIRONlnvTphuwwxT+cDogmuEfstuvwib9FxSgAAAAAAAAmbn/MdneLxP6E2UwAAAAAAAAAAAAAAAAAAAAAAAAAAAAAAAAAAAAAAAAAAAAAAAAAAAAAAAAAABhvUTfCP2W3X4RN+i4pQATXCP2W3X4RN+i4pQAAAAAATXCP2W3X4RN+i4pQAAAAAATXCP2W3X4RN+i4pQAAAAAAAATNz/mOzvF4n9CbKYAAAAAAAAAAAAAAAAAAAAAAAAAAAAAAAAAAAAAAAAAAAAAAAAAAAAAAAAAAAw3qJvhH7Lbr8Im/RcUoAOZWqVArlBn6RMxIjJeel4ktEdDwRyMe3RXRxRUxwXo6FObqvV9u7g8mQ3Yar1fbu4PJkN2Gq9X27uDyZDdhqvV9u7g8mQ3Yar1fbu4PJkN2Gq9X27uDyZDdhqvV9u7g8mQ3Yar1fbu4PJkN2Gq9X27uDyZDdhqvV9u7g8mQ3Yar1fbu4PJkN2Gq9X27uDyZDdhqvV9u7g8mQ3Yar1fbu4PJkN2NOo2RO1alzVOnb0r8aUm4TpeND4qSbpsc1WuTFJdFTFF60U3NV6vt3cHkyG7DVer7d3B5Mhuw1Xq+3dweTIbsNV6vt3cHkyG7DVer7d3B5Mhuw1Xq+3dweTIbsNV6vt3cHkyG7DVer7d3B5Mhuw1Xq+3dweTIbsNV6vt3cHkyG7DVer7d3B5Mhuw1Xq+3dweTIbsNV6vt3cHkyG7DVer7d3B5Mhuxp1GyJ2rUuap07elfjSk3CdLxofFSTdNjmq1yYpLoqYovWim5qvV9u7g8mQ3Yar1fbu4PJkN2Gq9X27uDyZDdhqvV9u7g8mQ3Yar1fbu4PJkN2Gq9X27uDyZDdhqvV9u7g8mQ3Yar1fbu4PJkN2Gq9X27uDyZDdhqvV9u7g8mQ3Yar1fbu4PJkN2Gq9X27uDyZDdhqvV9u7g8mQ3Yar1fbu4PJkN2Gq9X27uDyZDdhqvV9u7g8mQ3Yar1fbu4PJkN2Gq9X27uDyZDdjzg2nM/a1Pnp65qtU1p8V0xBgzDJZrNNYb4eK8VBY5cGxH9GlhjgVIAAAAAAAAAAAAAAAAAAAAAAAAAAAAAAAAAAAAAAAAAAAAAAAAAAAAAAAAAABhvUTfCP2W3X4RN+i4pQAAAAAAAAAAAAAAAAAAAAAAAAAAAAAAAAAAAAAAAAAAAAAAAAAAAAAAAAAAAAAAAAAAAAAAAAAAAAAAAAAAAAADDeom+Efstuvwib9FxSgAAAAAAAAAAAAAAAAAAAAAAAAAAAAAAAAAAAAAAAAAAAAAAAAAAAAAAAAAAAAAAAAAAAAAAAAAAAAAAAAAAAAAGG9RN8I/ZbdfhE36LilAAAAAAAAAAAAAAAAAAAAAAAAAAAAAAAAAAAAAAAAAAAAAAAAAAAAAAAAAAAAAAAAAAAAAAAAAAAAAAAAAAAAAAMN6ib4R+y26/CJv0XFKAAAAAAAAAAAAAAAAAAAAAAAAAAAAAAAAAAAAAAAAAAAAAAAAAAAAAAAAAAAAAAAAAAAAAAAAAAAAAAAAAAAAAAYb1E3wj9lt1+ETfouKUAAHzy8ryrEmtTlKHJsa2mPlEmZx8dEdDWK9v3WQlYqOTQXpVVbhj0IqoeacLFPW530tkKRexs1GkmolQbyrjYbVVVdL6OLYaq1zUdpKvV93BT8pwnz8ChsqM7bXEvmpCHUJOAyc4xYrFexjmvXQTQenGsVE+8ip9UVFQ39eqhCbHkY9DgMrLZ+HT4UuyexgRFfDSIj+NViORqMxx+4q4pgiKT0PhUm6PJPgVZtP+01mZ1ysnJ+HJwmQoUVWNhw4mgqPf1IiKiYomLlQ6y8JUxGmHTEjQ2x6TCWS4yafN8XE0ZlGaKsh6Coqt0kxRXJ9MFXqO3ZdTrFUZWFqrYCcmqceXg8U/TwhtXBGr9xvV+vSq/UqgAAAAAAAAAAAAAAAAAAAAAAAAAAAAAAAAAAAAAAAAAAAAAAAAAAAAAAAAAAAAAAAAAAAAAAAAAAAAAAAYb1E3wj9lt1+ETfouKUAAEnWbGkq3UI8w+fqEoyZ4rlMvLPYkOOsN2lDc7SYrkVOhPuqiKiIi4ohl9mQ4c7MR5SqVGFAjPixkkGxWtluNiNVHOXBumqKq6WgrlZj06OOBy6PwYysvb0vJVSpTk5MwpGDJo/TZoy7GOa9WQl4tFVquanS/SdgiJih2Z6zZOejzsw2cnJeZmZmFNsjwnM0oESG1GNWHpNVMFamCo5HIuKmlC4OpSWl05HW6xJzf+txk7Ciw+OiNiu03tcqsVuGl0oqNRW/9Kob0azKdEhzrHTE5ozj5aJExi6S4wNHQ+85FVcdBMVcqqv6obtIosOjzE+6BMR4rJ6ZdNLDiaOjDcv4kZg1FwVen7yr/AAdgAAAAAAAAAAAAAAAAAAAAAAAAAAAAAAAAAAAAAAAAAAAAAAAAAAAAAAAAAAAAAAAAAAAAAAAAAAAAAAAGG9RN8I/ZbdfhE36LilABo1Koy1JpczUpyLxUpKQnR4z9FV0GMRXOXBEVVwROpExORr5SO53BkE/8I18pHc7gyCf+Ea+UjudwZBP/AAjXykdzuDIJ/wCEa+UjudwZBP8AwjXykdzuDIJ/4Rr5SO53BkE/8I18pHc7gyCf+Ea+UjudwZBP/CNfKR3O4Mgn/hGvlI7ncGQT/wAI18pHc7gyCf8AhGvlI7ncGQT/AMI18pHc7gyCf+E8JjhBocnKxpmYhVqBLwWOiRIsShTzWw2omKqqrBwRERMVVT318pHc7gyCf+Ea+UjudwZBP/CNfKR3O4Mgn/hGvlI7ncGQT/wjXykdzuDIJ/4Rr5SO53BkE/8ACNfKR3O4Mgn/AIRr5SO53BkE/wDCNfKR3O4Mgn/hGvlI7ncGQT/wjXykdzuDIJ/4Rr5SO53BkE/8I18pHc7gyCf+Ea+UjudwZBP/AAnhMcINDk5WNMzEKtQJeCx0SJFiUKea2G1ExVVVYOCIiJiqqe+vlI7ncGQT/wAI18pHc7gyCf8AhGvlI7ncGQT/AMI18pHc7gyCf+Ea+UjudwZBP/CNfKR3O4Mgn/hGvlI7ncGQT/wjXykdzuDIJ/4Rr5SO53BkE/8ACNfKR3O4Mgn/AIRr5SO53BkE/wDCNfKR3O4Mgn/hGvlI7ncGQT/wjXykdzuDIJ/4TwmOEGhycrGmZiFWoEvBY6JEixKFPNbDaiYqqqsHBERExVVPfXykdzuDIJ/4Rr5SO53BkE/8I18pHc7gyCf+Ea+UjudwZBP/AAjXykdzuDIJ/wCEa+UjudwZBP8AwjXykdzuDIJ/4Rr5SO53BkE/8I18pHc7gyCf+Ea+UjudwZBP/CNfKR3O4Mgn/hGvlI7ncGQT/wAI18pHc7gyCf8AhGvlI7ncGQT/AMJ4THCDQ5OVjTMxCrUCXgsdEiRYlCnmthtRMVVVWDgiIiYqqlYAAAAAAAAAAAAAAAAAAAAAAAAAAAAAAAAAAAAAAAAAAAAAAAAAAAAADDeom+Efstuvwib9FxSgAmuEfstuvwib9FxSgAAAAAAmuEfstuvwib9FxSgAAAAAAmuEfstuvwib9FxSgAAAAAAmuEfstuvwib9FxSgAAAAAAmuEfstuvwib9FxSgAAAAAAAAAAAAAAAAAAAAAAAAAAAAAAAAAAAAAAAAAAAAAAAAAAAAAw3qJvhH7Lbr8Im/RcUoAJrhH7Lbr8Im/RcUoAAAAAAJrhH7Lbr8Im/RcUoAAAAAAJrhH7Lbr8Im/RcUoAAAAAAJrhH7Lbr8Im/RcUoAAAAAAJrhH7Lbr8Im/RcUoAAAAAAAAAAAAAAAAAAAAAAAAAAAAAAAAAAAAAAAAAAAAAAAAAAAAAMN6ib4R+y26/CJv0XFKACa4R+y26/CJv0XFKAADUlJqXnoax5WYhR4WkrNKG5HJi1Va5MU+qKmCp9FQ2wAACa4R+y26/CJv0XFKAADkVW46FQHQkrFZp9M41F4tJuYZB08MMdHSVMcOjqPKcuu3aZBlo8/X6XKQptnGS7483DY2M3o6WKrkRydKdKfwdKTmpeelIUzKR4UeBFajocWE9Hse1epWqnQqL/AAbQABNcI/ZbdfhE36LilAByqrcVFoLYa1esSNMSJijOVzDIKPw69HSVMcP4POo3PQKMyXfUq5TZBJhmnBWYmmQkiN6OlukqYp0p1fwekncNHn0leR1eRmuVo50vxMwx3HNYuD1Zgv3kavQuHV9Tyn7ooFLhpEqFcpkkxYjoSLHmmQ002/ibi5U+8nRinWhmNdFAlaXAqseu06DTphcIU0+ZYkKIvT0Neq6K9X0X6Hjrra32X9oay0fkSROJ5Ty2Hxenhjo6WlhpYdOGOOBvUysU2tS3KqTUZSoy2OhxsrFbFaip1ppNVUx6ug6IBM8I3ZbdfhE36LimAAAAAABNcI/ZbdfhE36LilAAAAAAAAAAAAAAAAAAAAAAAAAAAAAAAAAAAAAAAAAAAAAAAAAAAAABhvUTfCP2W3X4RN+i4pQATXCP2W3X4RN+i4pQACMv+aSVg0fldQi0yjxZ1GVCahzCy+gzQcrEWK3BzGrERiKqOb+mPSfPqLLOnaVBlYFZqsCThSFXmYbpebiS7nvSbXi3uVqtVVRFx6ehfqhva4TEKTjSs1V47KlNTNIiwYXGq174T0gJEcxv/wBNXcYjlb0Y4ovWeklJzU/UKY6Yr1awqE9U4MdIdRjQ28XDe9YbGo133NFWp0twdh0Kqt6D6BYk3HnbCok1NRXRo8aThviRHdKudopiqr+pRAAmuEfstuvwib9FxSgAA+Z3xVPsjhIt+Y+3qTRMafNt4+qM0oP44P3UTjIf3lw/d/09RxLdrNJotZtWYqE9K06T5BUYcOYmY7YUKP8A7iGqPhq7BEa/8TWp1NwwVUTFbbg+0IlPq03KwuLps3U40aSw6GPhLo4vYn7XPR7k+i44p0KWIABNcI/ZbdfhE36LilAB85nqlKW/e9wzVVqMjR5mcgwGU2eqTf8AbrCa378Nqq5iKqPxcrEcirii9RKSlWfSp+0Jh9So9s//AA6fhw31CXiMl9Dj4egjIb4zHN0mojkRXLgnQiYYYdqqy8S6LmoE3TavT6hUpSnzUzKT0l0S74zIsFNFER78GOTGG5NJehynHolySEOvUSs1OPDo8vEq1W4zlz2weJcrWpoOVyoiKi9HWKtPwIU9DrUhUZGm0qYudsWVqE03SlF/2bmxIiJpsRWrERU0kciKvTiv17daqkeuMtZ1Ouag1WcbXEYk3Iy6vl4a8nirovhtjqqrh/8A1p9Og7djumUr1xsq8WF9u8oZyiHAZxUJYKM0YMSG1XOdg5qdKqqrpIrepqFyATXCP2W3X4RN+i4pQAAfNbgqPJuEqXhOq0SI9XyyQpGFUokvGYiuXSVktorDmWLji9yri1qLhgrUJ2YrMdlMudkpXpianmyUy5ZqVqcWJxDkiIjeNlntTkkRMcGtYuDka/HqQubSl4khc1w0pZ2dmpWAkrEhJNzD47mOexdPBz1VyIqtRcMcEXqwLMAAmuEfstuvwib9FxSgAAAAAAAAAAAAAAAAAAAAAAAAAAAAAAAAAAAAAAAAAAAAAAAAAAAAAw3qJvhH7Lbr8Im/RcUoAJrhH7Lbr8Im/RcUoAByKtQJSs8VyqNPw+Kxw5JPx5Xrwx0uKe3S6ujHHD6YGjqHSO+XBn8/8w1DpHfLgz+f+Yah0jvlwZ/P/MdamyEOmyEOVgOjuZDxwWPMPjv6Vx6XvVXL/wB1XBOhOhEN8AE1wj9lt1+ETfouKUAAAAAAE1wj9lt1+ETfouKUAAAAAAE1wj9lt1+ETfouKUA148xAloWlHisgsxREc9URMV6k6RHmIEtC0o8VkFmKIjnqiJivUnSI8xAloWlHisgsxREc9URMV6k6RHmIEtC0o8VkFmKIjnqiJivUnSI8xAloWlHisgsxREc9URMV6k6RHmIEtC0o8VkFmKIjnqiJivUnSI8xAloWlHisgsxREc9URMV6k6RHmIEtC0o8VkFmKIjnqiJivUnSI8xAloWlHisgsxREc9URMV6k6TYBNcI/ZbdfhE36LilAAAAAAAAAAAAAAAAAAAAAAAAAAAAAAAAAAAAAAAAAAAAAAAAAAAAABhvUTfCP2W3X4RN+i4pQATXCP2W3X4RN+i4pQAAAAAATXCP2W3X4RN+i4pQAAAAAATXCP2W3X4RN+i4pQAAAAAATXCP2W3X4RN+i4pQDnVWjU+tyjJWpSkOagNiMiox6dCOauLV/yiiq0an1uUZK1KUhzUBsRkVGPToRzVxav+UUVWjU+tyjJWpSkOagNiMiox6dCOauLV/yiiq0an1uUZK1KUhzUBsRkVGPToRzVxav+UUVWjU+tyjJWpSkOagNiMiox6dCOauLV/yiiq0an1uUZK1KUhzUBsRkVGPToRzVxav+UUVWjU+tyjJWpSkOagNiMiox6dCOauLV/wAooqtGp9blGStSlIc1AbEZFRj06Ec1cWr/AJRRVaNT63KMlalKQ5qA2IyKjHp0I5q4tX/KKdEE1wj9lt1+ETfouKUAAAAAAAAAAAAAAAAAAAAAAAAAAAAAAAAAAAAAAAAAAAAAAAAAAAAAGG9RN8I/ZbdfhE36LilABNcI/ZbdfhE36LilAAAAAABNcI/ZbdfhE36LilAAAAAABNcI/ZbdfhE36LilAAAAAABNcI/ZbdfhE36LilAAAAAABNcI/ZbdfhE36LilAAAAAAAAAAAAAAAAAAAAAAAAAAAAAAAAAAAAAAAAAAAAAAAAAAAAABhvUTfCP2W3X4RN+i4pQAcytUqBXKDP0iZiRGS89LxJaI6HgjkY9uiujiipjgvR0Kc3Ver7d3B5Mhuw1Xq+3dweTIbsNV6vt3cHkyG7DVer7d3B5Mhuw1Xq+3dweTIbsNV6vt3cHkyG7DVer7d3B5Mhuw1Xq+3dweTIbsNV6vt3cHkyG7DVer7d3B5Mhuw1Xq+3dweTIbsNV6vt3cHkyG7DVer7d3B5Mhuw1Xq+3dweTIbsadRsidq1LmqdO3pX40pNwnS8aHxUk3TY5qtcmKS6KmKL1opuar1fbu4PJkN2Gq9X27uDyZDdhqvV9u7g8mQ3Yar1fbu4PJkN2Gq9X27uDyZDdhqvV9u7g8mQ3Yar1fbu4PJkN2Gq9X27uDyZDdhqvV9u7g8mQ3Yar1fbu4PJkN2Gq9X27uDyZDdhqvV9u7g8mQ3Yar1fbu4PJkN2Gq9X27uDyZDdjTqNkTtWpc1Tp29K/GlJuE6XjQ+Kkm6bHNVrkxSXRUxRetFNzVer7d3B5Mhuw1Xq+3dweTIbsNV6vt3cHkyG7DVer7d3B5Mhuw1Xq+3dweTIbsNV6vt3cHkyG7DVer7d3B5Mhuw1Xq+3dweTIbsNV6vt3cHkyG7DVer7d3B5Mhuw1Xq+3dweTIbsNV6vt3cHkyG7DVer7d3B5Mhuw1Xq+3dweTIbsadRsidq1LmqdO3pX40pNwnS8aHxUk3TY5qtcmKS6KmKL1opuar1fbu4PJkN2Gq9X27uDyZDdhqvV9u7g8mQ3Yar1fbu4PJkN2Gq9X27uDyZDdhqvV9u7g8mQ3Y5tFplTrMlEmWXrcMNIczMSuDoUh0rCjOhKv8A5bqVWYnS1Xq+3dweTIbsNV6vt3cHkyG7DVer7d3B5Mhuw1Xq+3dweTIbsNV6vt3cHkyG7DVer7d3B5Mhuw1Xq+3dweTIbsadRsidq1LmqdO3pX40pNwnS8aHxUk3TY5qtcmKS6KmKL1opYgAAAAAAAAAAAAAAAAAAAAAAAAAAAAAAAAAAAAAAAAAAAAAAAAAAAAAw3qJvhH7Lbr8Im/RcUoAAAAAAAAAAAAAAAAAAAAAAAAAAAJqw/y9NeL1P+/HKUAAAAAAAAAAAAAAAAAAAAAAAAAAAAAAAAAAAAAAAAAAAAAAAAAAAAAAAAAGG9RN8I/ZbdfhE36LilAAAAAAAAAAAAAAAAAAAAAAAAAAABNWF+Xpvxep/wB+OUoAAAAAAAAAAAAAAAAAAAAAAAAAAAAAAAAAAAAAAAAAAAAAAAAAAAAAAAAAMN6ib4R+y26/CJv0XFFps/c0abP3NGmz9zRps/c0abP3NGmz9zRps/c0abP3NGmz9zRps/c0abP3NGmz9zRps/c0abP3NGmz9zRps/c0abP3NGmz9zRps/c0abP3NGmz9zRps/c0abP3NGmz9zRps/c0abP3NGmz9zRps/c0abP3NGmz9zRps/c0abP3NGmz9zRps/c0abP3NGmz9zRps/c0abP3NGmz9zRps/c0abP3NGmz9zRps/c0abP3NGmz9zRps/c0abP3NGmz9zRps/c0abP3NGmz9zRps/c0abP3NGmz9zRps/c0abP3NJywum3ZpU/9Xqf9+OUwAAAAAAAAAAAAAAAAAAAAAAAAAAAAAAAAAAAAAAAAAAAAAAAAAAAAAAAAAMN6jwjQIUxAfAjwmxYUVFa9j0RWvRUwVFRehUVPocPm7szZGhZfC9o5u7M2RoWXwvaObuzNkaFl8L2jm7szZGhZfC9o5u7M2RoWXwvaObuzNkaFl8L2jm7szZGhZfC9o5u7M2RoWXwvaObuzNkaFl8L2jm7szZGhZfC9o5u7M2RoWXwvaObuzNkaFl8L2jm7szZGhZfC9o5u7M2RoWXwvaObuzNkaFl8L2jm7szZGhZfC9o5u7M2RoWXwvaObuzNkaFl8L2jm7szZGhZfC9o5u7M2RoWXwvaObuzNkaFl8L2jm7szZGhZfC9o5u7M2RoWXwvaObuzNkaFl8L2jm7szZGhZfC9o5u7M2RoWXwvaObuzNkaFl8L2jm7szZGhZfC9o5u7M2RoWXwvaObuzNkaFl8L2jm7szZGhZfC9o5u7M2RoWXwvaObuzNkaFl8L2jm7szZGhZfC9o5u7M2RoWXwvaObuzNkaFl8L2jm7szZGhZfC9o5u7M2RoWXwvaObuzNkaFl8L2jm7szZGhZfC9o5u7M2RoWXwvaObuzNkaFl8L2jm7szZGhZfC9o5u7M2RoWXwvaObuzNkaFl8L2jm7szZGhZfC9o5u7M2RoWXwvaObuzNkaFl8L2jm7szZGhZfC9o5u7M2RoWXwvaObuzNkaFl8L2jm7szZGhZfC9o5u7M2RoWXwvaObuzNkaFl8L2jm7szZGhZfC9o5u7M2RoWXwvadiRkJSmSbJSQlIEpKwv+ODAYjGMTr6GoiInSbgAAAAAAAAAAAAAAAAAAAAAAAAAAAAAAAAAAAAAAAAAAAAAAAAAAAAAAAAAMN6jIAAAAAAAAAAAAAAAAAAAAAAAAAAAAAAAAAAAAAAAAAAAAAAAAAAAAAAAAAAAAAAAAAAAAAAAAAAAAAAAAAAAAAAMN6j/2Q==;" vertex="1" parent="1">
          <mxGeometry x="-70" y="620" width="1398" height="697" as="geometry" />
        </mxCell>
      </root>
    </mxGraphModel>
  </diagram>
</mxfile>
